<?xml version="1.0" encoding="utf-8"?>
<!-- Generator: Adobe Illustrator 16.0.0, SVG Export Plug-In . SVG Version: 6.00 Build 0)  -->
<!DOCTYPE svg PUBLIC "-//W3C//DTD SVG 1.1//EN" "http://www.w3.org/Graphics/SVG/1.1/DTD/svg11.dtd">
<svg version="1.1" id="Layer_1" xmlns="http://www.w3.org/2000/svg" xmlns:xlink="http://www.w3.org/1999/xlink" x="0px" y="0px"
	 width="13.603px" height="26.458px" viewBox="0 0 13.603 26.458" enable-background="new 0 0 13.603 26.458" xml:space="preserve">
<path fill="#FFFFFF" d="M13.766,0.006L10.335,0C6.48,0,3.989,2.556,3.989,6.512v3.002h-3.45C0.241,9.514,0,9.755,0,10.054v4.349
	c0,0.298,0.242,0.541,0.539,0.541h3.45v10.976c0,0.298,0.241,0.539,0.54,0.539H9.03c0.298,0,0.539-0.241,0.539-0.539V14.943h4.033
	c0.299,0,0.54-0.243,0.54-0.541l0.002-4.349c0-0.145-0.058-0.28-0.158-0.382c-0.102-0.103-0.24-0.158-0.382-0.158H9.569V6.969
	c0-1.224,0.292-1.845,1.884-1.845h2.312c0.298,0,0.539-0.242,0.539-0.54V0.545C14.305,0.247,14.063,0.006,13.766,0.006"/>
</svg>
