<svg id="Layer_1" data-name="Layer 1" xmlns="http://www.w3.org/2000/svg" viewBox="0 0 52.5 52.5"><defs><style>.cls-1{fill:#81c4f0;}.cls-2{fill:#fff;}</style></defs><title>instagram</title><circle class="cls-1" cx="26.65" cy="26.27" r="24.74"/><path class="cls-2" d="M17.69,13.85H36.15A3.12,3.12,0,0,1,39.34,17V35.5a3.11,3.11,0,0,1-3.19,3.18H17.69A3.11,3.11,0,0,1,14.5,35.5V17a3.12,3.12,0,0,1,3.19-3.19Zm14.9,2.76a1.12,1.12,0,0,0-1.11,1.12v2.68a1.11,1.11,0,0,0,1.11,1.11H35.4a1.12,1.12,0,0,0,1.12-1.11V17.73a1.12,1.12,0,0,0-1.12-1.12Zm3.94,7.74H34.34a7.18,7.18,0,0,1,.32,2.13,7.72,7.72,0,0,1-15.44,0,7.52,7.52,0,0,1,.32-2.13H17.26V34.84a1,1,0,0,0,1,1H35.54a1,1,0,0,0,1-1V24.35Zm-9.59-3a4.84,4.84,0,1,0,5,4.83A4.91,4.91,0,0,0,26.94,21.38Z"/></svg>