<svg id="Layer_1" data-name="Layer 1" xmlns="http://www.w3.org/2000/svg" viewBox="0 0 52.5 52.5"><defs><style>.cls-1{fill:#81c4f0;}.cls-2{fill:#fff;}</style></defs><title>linkedin</title><circle class="cls-1" cx="26.65" cy="26.27" r="24.74"/><path class="cls-2" d="M19,13.11a3.52,3.52,0,1,0,3.51,3.51A3.51,3.51,0,0,0,19,13.11Z"/><path class="cls-2" d="M21.58,21.55H16.31a.45.45,0,0,0-.45.45V39a.45.45,0,0,0,.45.45h5.27A.46.46,0,0,0,22,39V22A.46.46,0,0,0,21.58,21.55Z"/><path class="cls-2" d="M35.06,21.35a7,7,0,0,0-4.66,1.54V22a.45.45,0,0,0-.45-.45H24.89a.45.45,0,0,0-.45.45V39a.45.45,0,0,0,.45.45h5.27a.45.45,0,0,0,.45-.45V30.58c0-2.41.44-3.91,2.66-3.91s2.34,1.61,2.34,4V39a.45.45,0,0,0,.45.45h5.27a.45.45,0,0,0,.45-.45V29.66C41.78,25.79,41,21.35,35.06,21.35Z"/></svg>