<?xml version="1.0" encoding="utf-8"?>
<!-- Generator: Adobe Illustrator 16.0.0, SVG Export Plug-In . SVG Version: 6.00 Build 0)  -->
<!DOCTYPE svg PUBLIC "-//W3C//DTD SVG 1.1//EN" "http://www.w3.org/Graphics/SVG/1.1/DTD/svg11.dtd">
<svg version="1.1" id="Layer_1" xmlns="http://www.w3.org/2000/svg" xmlns:xlink="http://www.w3.org/1999/xlink" x="0px" y="0px"
	 width="25.95px" height="21.079px" viewBox="0 0 25.95 21.079" enable-background="new 0 0 25.95 21.079" xml:space="preserve">
<path fill="#FFFFFF" d="M25.95,2.494c-0.955,0.423-1.979,0.71-3.058,0.838c1.101-0.658,1.942-1.702,2.342-2.943
	c-1.032,0.61-2.17,1.053-3.383,1.293C20.88,0.645,19.498,0,17.967,0c-2.94,0-5.325,2.384-5.325,5.322
	c0,0.416,0.047,0.822,0.138,1.213C8.356,6.313,4.433,4.193,1.807,0.973c-0.459,0.785-0.719,1.7-0.719,2.676
	c0,1.848,0.94,3.477,2.367,4.431C2.583,8.05,1.762,7.809,1.044,7.411v0.065c0,2.579,1.835,4.731,4.27,5.221
	c-0.447,0.12-0.917,0.187-1.403,0.187c-0.344,0-0.676-0.035-1.002-0.099c0.678,2.116,2.643,3.655,4.972,3.697
	c-1.822,1.427-4.118,2.275-6.612,2.275c-0.429,0-0.853-0.026-1.269-0.074c2.356,1.514,5.153,2.396,8.159,2.396
	c9.793,0,15.146-8.111,15.146-15.146l-0.017-0.688C24.333,4.498,25.239,3.561,25.95,2.494"/>
</svg>
