<svg id="Layer_1" data-name="Layer 1" xmlns="http://www.w3.org/2000/svg" viewBox="0 0 52.5 52.5"><defs><style>.cls-1{fill:#81c4f0;}.cls-2{fill:#fff;}</style></defs><title>tweet</title><circle class="cls-1" cx="26.65" cy="26.27" r="24.74"/><path class="cls-2" d="M40,18.22a10.45,10.45,0,0,1-3.05.84,5.35,5.35,0,0,0,2.34-2.94,10.78,10.78,0,0,1-3.39,1.29,5.33,5.33,0,0,0-9.21,3.64,5.34,5.34,0,0,0,.14,1.21,15.12,15.12,0,0,1-11-5.56,5.33,5.33,0,0,0,1.65,7.11,5.26,5.26,0,0,1-2.41-.67v.07a5.33,5.33,0,0,0,4.27,5.22,5.45,5.45,0,0,1-1.41.18,4.78,4.78,0,0,1-1-.1,5.32,5.32,0,0,0,5,3.7A10.63,10.63,0,0,1,14,34.41,15.13,15.13,0,0,0,37.31,21.66l0-.69A10.39,10.39,0,0,0,40,18.22Z"/></svg>