<svg id="Layer_1" data-name="Layer 1" xmlns="http://www.w3.org/2000/svg" viewBox="0 0 129 129"><defs><style>.cls-1{opacity:0.25;}.cls-2{fill:#81c4f0;}.cls-3{fill:#fff;opacity:0.89;}</style></defs><title>play-video</title><g class="cls-1"><path class="cls-2" d="M65.1,123.5A59.5,59.5,0,1,1,124.6,64,59.57,59.57,0,0,1,65.1,123.5Zm0-118A58.5,58.5,0,1,0,123.6,64,58.57,58.57,0,0,0,65.1,5.5Z"/></g><path class="cls-2" d="M65.1,119a55,55,0,1,1,55-55,54.43,54.43,0,0,1-4.54,21.91l-.91-.39A54.1,54.1,0,1,0,106.2,99l.76.65A54.93,54.93,0,0,1,65.1,119Z"/><circle class="cls-2" cx="111.1" cy="93" r="3"/><path class="cls-3" d="M65.1,14a50,50,0,1,0,50,50A50,50,0,0,0,65.1,14Zm1,57.25L59.39,79V48l6.71,7.75,6.72,7.75Z"/></svg>