<svg id="Layer_1" data-name="Layer 1" xmlns="http://www.w3.org/2000/svg" viewBox="0 0 64 64"><defs><style>.cls-1{fill:#962fbf;}.cls-2{fill:#fff;}</style></defs><title>broker-appraiser</title><circle class="cls-1" cx="32" cy="32" r="30"/><path class="cls-2" d="M49.91,34.64a.4.4,0,0,0,.23.08.34.34,0,0,0,.16,0,.36.36,0,0,0,.2-.32V32.42a.37.37,0,0,0-.14-.29l-5.92-4.66a1.13,1.13,0,0,0-1.41,0l-2.22,1.75v-.68a.37.37,0,0,0-.37-.36H38.89a.36.36,0,0,0-.36.36V31l-1.41,1.11a.37.37,0,0,0-.14.29v1.94a.36.36,0,0,0,.2.32.37.37,0,0,0,.39,0l.18-.15V38l-3.39-2.67a1.13,1.13,0,0,0-1.41,0L28.2,39.11a.37.37,0,0,0-.14.29v1.94a.36.36,0,0,0,.2.32.32.32,0,0,0,.16,0,.4.4,0,0,0,.23-.08l.18-.15v3.77h-.41a.36.36,0,0,0-.36.36.37.37,0,0,0,.36.37H50.14a.37.37,0,0,0,.36-.37.36.36,0,0,0-.36-.36h-.42V34.49l.19.15ZM39.25,28.9h.83v.9l-.83.65ZM37.7,32.59,43.48,28A.41.41,0,0,1,44,28l5.78,4.55v1L44,29a.35.35,0,0,0-.22-.08.4.4,0,0,0-.23.08L37.7,33.61Zm-8.91,7,4.61-3.63a.41.41,0,0,1,.51,0l3.84,3v1l-3.87-3a.35.35,0,0,0-.45,0l-4.64,3.66v-1Zm.77,1.33,4.1-3.23,4.09,3.23v4.34h-1.6V41a.36.36,0,0,0-.36-.36H31.52a.36.36,0,0,0-.36.36v4.29h-1.6V40.9Zm2.33,2h3.54v.83H31.89Zm3.54-.72H31.89v-.83h3.54Zm-3.54,2.27h3.54v.83H31.89Zm10.52-1.88h0a.38.38,0,0,0-.26.11.4.4,0,0,0-.1.26.37.37,0,0,0,.1.25.38.38,0,0,0,.26.11h0v2h-1.6v-4.7h1.6ZM49,45.24H43.13V40.17a.36.36,0,0,0-.36-.36H40.44a.36.36,0,0,0-.36.36v5.07h-1.6V33.92l5.26-4.14L49,33.92Z"/><path class="cls-2" d="M44.71,43.64H47a.36.36,0,0,0,.37-.36V40.17a.36.36,0,0,0-.37-.36H44.71a.37.37,0,0,0-.37.36v3.11A.37.37,0,0,0,44.71,43.64Zm.36-.73V41.7h1.6v1.21Zm1.6-2.37V41h-1.6v-.43Z"/><path class="cls-2" d="M44.71,38.21H47a.36.36,0,0,0,.37-.36V34.74a.36.36,0,0,0-.37-.36H44.71a.37.37,0,0,0-.37.36v3.11A.37.37,0,0,0,44.71,38.21Zm.36-.73V36.27h1.6v1.21Zm1.6-2.37v.43h-1.6v-.43Z"/><path class="cls-2" d="M42.77,34.38H40.44a.36.36,0,0,0-.36.36v3.11a.36.36,0,0,0,.36.36h2.33a.36.36,0,0,0,.36-.36V34.74a.36.36,0,0,0-.36-.36Zm-.36.73v.43h-1.6v-.43Zm-1.6,2.37V36.27h1.6v1.21Z"/><path class="cls-2" d="M19.27,27.61c.18-1.05.69-2.05.33-3.14-.15-.47.31-.45.6-.41s.9-.22.74.39c-.29,1.07.21,2.05.22,3.09a10.9,10.9,0,0,0,1-3.1,2.32,2.32,0,0,0,.05-.38c0-.48.18-.69.75-.48a21.38,21.38,0,0,1,2.26.86,4.39,4.39,0,0,0,3.6.32c.71-.26,1.46-.41,2.19-.61,1-.28,1.64,0,1.91.69a1.42,1.42,0,0,1-1,1.95c-2.46.68-4.9,1.92-7.45.36a2.31,2.31,0,0,0-.21,1.22c-.12,3.65-.21,7.3-.37,11-.08,1.75-.28,3.49-.45,5.23A1.46,1.46,0,0,1,21,45.7a1.36,1.36,0,0,0-1.45,0c-1.25.65-2.15.08-2.31-1.34-.37-3.36-.57-6.73-.75-10.1,0-.27-.05-.47-.33-.6a1.63,1.63,0,0,1-.84-1.2,19,19,0,0,1,0-7.48,1.2,1.2,0,0,1,.53-.8,1.15,1.15,0,0,1,.27-.14c.62-.19,1.27-.6,1.9-.42s.41,1.05.6,1.59C18.88,26,19.06,26.81,19.27,27.61Z"/><path class="cls-2" d="M22.61,19.13a5.66,5.66,0,0,1-.85,2.75,1.62,1.62,0,0,1-2.94,0A5.26,5.26,0,0,1,18,18.44a2.14,2.14,0,0,1,2.53-1.93C21.89,16.62,22.64,17.47,22.61,19.13Z"/></svg>