<svg id="Layer_1" data-name="Layer 1" xmlns="http://www.w3.org/2000/svg" viewBox="0 0 64 64"><defs><style>.cls-1{fill:#962fbf;}.cls-2{fill:#fff;}</style></defs><title>delinquency</title><circle class="cls-1" cx="32" cy="32" r="30"/><path class="cls-2" d="M47.89,32a2.07,2.07,0,0,1-1.48.61,2.16,2.16,0,0,1-.7-.13V43.67a2.79,2.79,0,0,1-2.78,2.78H36a1.39,1.39,0,0,1-1.39-1.39V38.81a.7.7,0,0,0-.69-.7H31.12a.7.7,0,0,0-.7.7v6.25A1.39,1.39,0,0,1,29,46.45H22.09a2.78,2.78,0,0,1-2.78-2.78V32.39a2,2,0,0,1-2.2-.5,2.09,2.09,0,0,1,0-2.95L20,26.16V20.05a1.39,1.39,0,0,1,1.39-1.39h2.78a1.39,1.39,0,0,1,1.39,1.39v.69l5.82-5.67a2.08,2.08,0,0,1,2.92,0L47.89,29A2.07,2.07,0,0,1,47.89,32ZM22.09,45.06h6.25a.69.69,0,0,0,.7-.69V38.11a1.39,1.39,0,0,1,1.39-1.39h4.16A1.39,1.39,0,0,1,36,38.11v6.26a.7.7,0,0,0,.7.69h6.25a1.39,1.39,0,0,0,1.39-1.39V31.31L32.81,19.5,20.7,31.31V43.67A1.39,1.39,0,0,0,22.09,45.06Zm2.08-24.31a.69.69,0,0,0-.69-.7H22.09a.7.7,0,0,0-.7.7v4.06l2.78-2.71ZM46.91,30,33.32,16.08a.67.67,0,0,0-.49-.2.71.71,0,0,0-.48.19L18.12,29.94a.71.71,0,0,0,0,1,.68.68,0,0,0,.5.2.71.71,0,0,0,.48-.19l.22-.22v-.24h.26L32.83,17.54,45.44,30.47h.27v.28l.22.22a.67.67,0,0,0,.49.2.72.72,0,0,0,.49-.2.68.68,0,0,0,.2-.49A.67.67,0,0,0,46.91,30Zm-14.4-5.77A2.78,2.78,0,1,1,29.73,27,2.78,2.78,0,0,1,32.51,24.22Zm0,4.17A1.39,1.39,0,1,0,31.12,27,1.39,1.39,0,0,0,32.51,28.39Z"/></svg>