<svg id="Layer_1" data-name="Layer 1" xmlns="http://www.w3.org/2000/svg" viewBox="0 0 64 64"><defs><style>.cls-1{fill:#962fbf;}.cls-2{fill:#fff;}</style></defs><title>lease-operations-exposure</title><circle class="cls-1" cx="32" cy="32" r="30"/><path class="cls-2" d="M30.92,38.09H29.06a7.75,7.75,0,0,0-1.14-2.94l1.33-1.33A1.58,1.58,0,0,0,27,31.58l-1.3,1.31a8,8,0,0,0-2.94-1.18V29.92a1.57,1.57,0,1,0-3.14,0v1.87a7.74,7.74,0,0,0-2.54,1.08l-1.28-1.29a1.58,1.58,0,0,0-2.24,2.24l1.29,1.28a7.9,7.9,0,0,0-1.17,3H11.91a1.56,1.56,0,1,0,0,3.11H13.8a7.43,7.43,0,0,0,1.09,2.51L13.57,45a1.58,1.58,0,0,0,2.24,2.24l1.33-1.33a7.45,7.45,0,0,0,2.49,1v1.94a1.57,1.57,0,1,0,3.14,0V47.05a7.64,7.64,0,0,0,2.9-1.15L27,47.26A1.58,1.58,0,0,0,29.26,45L27.9,43.67A7.58,7.58,0,0,0,29,41.2h2a1.56,1.56,0,1,0,0-3.11Zm-9.54,6.5a5.21,5.21,0,1,1,5.21-5.21,5.21,5.21,0,0,1-5.21,5.21Z"/><path class="cls-2" d="M44.63,42.69h-1A4.26,4.26,0,0,0,43,41.08l.73-.74a.87.87,0,1,0-1.23-1.23l-.72.73a4.12,4.12,0,0,0-1.61-.65v-1a.87.87,0,1,0-1.73,0v1a4.39,4.39,0,0,0-1.39.59l-.7-.71a.89.89,0,0,0-1.23,0,.87.87,0,0,0,0,1.23l.7.71a4.26,4.26,0,0,0-.64,1.64h-1a.85.85,0,0,0-.87.85.87.87,0,0,0,.87.86h1a4.26,4.26,0,0,0,.6,1.38l-.72.72a.87.87,0,0,0,1.23,1.23l.73-.74a4.11,4.11,0,0,0,1.36.58v1.07a.87.87,0,1,0,1.73,0v-1A4.31,4.31,0,0,0,41.75,47l.74.74a.87.87,0,1,0,1.23-1.23L43,45.75a4,4,0,0,0,.58-1.35h1.08a.86.86,0,1,0,0-1.71Zm-5.24,3.57a2.86,2.86,0,1,1,2.86-2.86,2.86,2.86,0,0,1-2.86,2.86Z"/><path class="cls-2" d="M34,23.2v9.66h4.19V13.55H34Zm3.36,0V32H34.86l0-8.75c0-4.82,0-8.79,0-8.83s.29-.06,1.26,0l1.25,0v8.81Z"/><path class="cls-2" d="M39.9,25.31v7.57h4.19V17.73H39.9v7.58Zm3.35,0v6.72H40.74V18.62h2.51Z"/><path class="cls-2" d="M45.77,27.83v5H50V22.8H45.76Zm3.37,0V32H46.62V23.63h2.55Z"/><path class="cls-2" d="M32.32,35v.41H52.5v-.83H32.32Z"/></svg>