<svg id="Layer_1" data-name="Layer 1" xmlns="http://www.w3.org/2000/svg" viewBox="0 0 1284 1239"><defs><style>.cls-1{opacity:0.03;}.cls-2{fill:#fff;}.cls-3{fill:#81c4f0;}</style></defs><title>logo-q-bg1</title><g class="cls-1"><path class="cls-2" d="M641.12,40.79c-321,0-582.07,261.07-582.07,582.07s261.07,582.07,582.07,582.07a578.37,578.37,0,0,0,249.32-56.16c-74.7-27.38-130-94.75-139.92-176.13a362.78,362.78,0,0,1-109.4,16.71C439,989.35,274.63,825,274.63,622.86S439,256.37,641.12,256.37,1007.6,420.75,1007.6,622.86a363.1,363.1,0,0,1-16.7,109.41c81.38,9.91,148.75,65.22,176.13,139.91a578.34,578.34,0,0,0,56.16-249.32C1223.19,301.86,962.12,40.79,641.12,40.79Z"/><circle class="cls-3" cx="964.49" cy="946.23" r="204.8"/></g></svg>