<?xml version="1.0" encoding="utf-8"?>
<!-- Generator: Adobe Illustrator 16.0.0, SVG Export Plug-In . SVG Version: 6.00 Build 0)  -->
<!DOCTYPE svg PUBLIC "-//W3C//DTD SVG 1.1//EN" "http://www.w3.org/Graphics/SVG/1.1/DTD/svg11.dtd">
<svg version="1.1" id="Layer_1" xmlns="http://www.w3.org/2000/svg" xmlns:xlink="http://www.w3.org/1999/xlink" x="0px" y="0px"
	 width="22.386px" height="22.386px" viewBox="0 0 22.386 22.386" enable-background="new 0 0 22.386 22.386" xml:space="preserve">
<path fill="none" stroke="#FFFFFF" stroke-miterlimit="10" d="M21.12,17.433l-3.249-3.249c-0.646-0.645-1.719-0.625-2.389,0.045
	l-1.637,1.636c-0.103-0.057-0.209-0.116-0.322-0.18c-1.034-0.572-2.448-1.357-3.938-2.847c-1.493-1.494-2.279-2.911-2.853-3.944
	C6.671,8.784,6.614,8.678,6.557,8.579l1.098-1.097l0.54-0.541C8.866,6.27,8.884,5.198,8.239,4.551L4.99,1.301
	C4.344,0.656,3.271,0.675,2.601,1.346L1.686,2.268L1.71,2.292C1.404,2.685,1.146,3.136,0.956,3.624C0.78,4.086,0.67,4.53,0.62,4.974
	C0.191,8.53,1.816,11.78,6.227,16.191c6.097,6.095,11.011,5.636,11.223,5.613c0.461-0.057,0.903-0.166,1.353-0.34
	c0.483-0.189,0.936-0.445,1.326-0.752l0.02,0.018l0.929-0.908C21.746,19.151,21.765,18.08,21.12,17.433z"/>
</svg>
