<?xml version="1.0" encoding="utf-8"?>
<!-- Generator: Adobe Illustrator 16.0.0, SVG Export Plug-In . SVG Version: 6.00 Build 0)  -->
<!DOCTYPE svg PUBLIC "-//W3C//DTD SVG 1.1//EN" "http://www.w3.org/Graphics/SVG/1.1/DTD/svg11.dtd">
<svg version="1.1" id="Layer_1" xmlns="http://www.w3.org/2000/svg" xmlns:xlink="http://www.w3.org/1999/xlink" x="0px" y="0px"
	 width="41.224px" height="38.604px" viewBox="0 0 41.224 38.604" enable-background="new 0 0 41.224 38.604" xml:space="preserve">
<g opacity="0.2">
	<g>
		<defs>
			<rect id="SVGID_1_" width="41.584" height="38.604"/>
		</defs>
		<clipPath id="SVGID_2_">
			<use xlink:href="#SVGID_1_"  overflow="visible"/>
		</clipPath>
		<path clip-path="url(#SVGID_2_)" fill="#FFFFFF" d="M13.309,17.495c-1.024-0.328-2.048-0.493-3.044-0.493
			c-1.539,0-2.823,0.39-3.818,0.87c0.96-3.906,3.265-10.644,7.857-11.404c0.425-0.069,0.774-0.413,0.89-0.871l1.004-3.993
			c0.084-0.336,0.034-0.698-0.139-0.991c-0.173-0.292-0.452-0.488-0.763-0.536c-0.34-0.051-0.685-0.076-1.027-0.076
			c-5.512,0-10.972,6.396-13.275,15.553c-1.352,5.372-1.749,13.451,1.582,18.534c1.864,2.844,4.583,4.363,8.082,4.516
			c0.015,0,0.029,0,0.043,0c4.317,0,8.146-3.23,9.311-7.859c0.695-2.765,0.381-5.667-0.887-8.17
			C17.871,20.1,15.806,18.295,13.309,17.495"/>
		<path clip-path="url(#SVGID_2_)" fill="#FFFFFF" d="M40.336,22.574c-1.254-2.476-3.319-4.28-5.816-5.078
			c-1.023-0.328-2.048-0.495-3.044-0.495c-1.539,0-2.823,0.392-3.818,0.871c0.959-3.905,3.265-10.646,7.857-11.403
			c0.425-0.072,0.774-0.413,0.89-0.872l1.004-3.992c0.085-0.337,0.034-0.698-0.139-0.992c-0.173-0.293-0.451-0.487-0.764-0.535
			C36.168,0.027,35.822,0,35.479,0c-5.513,0-10.972,6.396-13.274,15.554c-1.353,5.372-1.749,13.449,1.582,18.534
			c1.863,2.844,4.584,4.363,8.082,4.516c0.014,0,0.028,0.002,0.043,0.002c4.317,0,8.146-3.232,9.312-7.859
			C41.918,27.978,41.604,25.078,40.336,22.574"/>
	</g>
</g>
</svg>
