<?xml version="1.0" encoding="utf-8"?>
<!-- Generator: Adobe Illustrator 16.0.0, SVG Export Plug-In . SVG Version: 6.00 Build 0)  -->
<!DOCTYPE svg PUBLIC "-//W3C//DTD SVG 1.1//EN" "http://www.w3.org/Graphics/SVG/1.1/DTD/svg11.dtd">
<svg version="1.1" id="Layer_1" xmlns="http://www.w3.org/2000/svg" xmlns:xlink="http://www.w3.org/1999/xlink" x="0px" y="0px"
	 width="20.67px" height="27.125px" viewBox="0 0 20.67 27.125" enable-background="new 0 0 20.67 27.125" xml:space="preserve">
<g display="none" opacity="0.1">
	<g display="inline">
		<defs>
			<rect id="SVGID_1_" x="-16.819" y="-13.566" width="54.476" height="54.48"/>
		</defs>
		<clipPath id="SVGID_2_">
			<use xlink:href="#SVGID_1_"  overflow="visible"/>
		</clipPath>
		<path clip-path="url(#SVGID_2_)" fill="#F0EFEF" d="M37.657,13.674c0,15.044-12.194,27.237-27.238,27.237
			c-15.044,0-27.239-12.193-27.239-27.237c0-15.043,12.195-27.238,27.239-27.238C25.463-13.564,37.657-1.369,37.657,13.674"/>
	</g>
</g>
<path fill="none" stroke="#FFFFFF" stroke-miterlimit="10" d="M10.419,13.393c2.858,0,5.177-2.814,5.177-6.287
	c0-3.473-0.761-6.288-5.177-6.288S5.242,3.633,5.242,7.106C5.242,10.579,7.56,13.393,10.419,13.393z"/>
<path fill="none" stroke="#FFFFFF" stroke-miterlimit="10" d="M0.641,22.995C0.64,22.783,0.639,22.935,0.641,22.995z"/>
<path fill="none" stroke="#FFFFFF" stroke-miterlimit="10" d="M20.196,23.16C20.199,23.101,20.197,22.757,20.196,23.16z"/>
<path fill="none" stroke="#FFFFFF" stroke-miterlimit="10" d="M20.186,22.741c-0.097-6.05-0.887-7.773-6.933-8.865
	c0,0-0.851,1.085-2.834,1.085c-1.984,0-2.835-1.085-2.835-1.085c-5.98,1.08-6.818,2.778-6.928,8.668
	c-0.01,0.481-0.013,0.507-0.015,0.451c0,0.104,0.001,0.298,0.001,0.635c0,0,1.439,2.902,9.777,2.902
	c8.337,0,9.777-2.902,9.777-2.902c0-0.216,0-0.368,0-0.47C20.195,23.193,20.191,23.127,20.186,22.741z"/>
</svg>
