<svg id="Layer_1" data-name="Layer 1" xmlns="http://www.w3.org/2000/svg" viewBox="0 0 166 166"><defs><style>.cls-1{fill:#fff;}.cls-2{opacity:0.2;}.cls-3{opacity:0.1;}.cls-4{fill:#81c4f0;}</style></defs><title>about-logo</title><path class="cls-1" d="M83,16.75a66,66,0,1,0,28.27,125.63,24.48,24.48,0,0,1-15.86-20,41.59,41.59,0,1,1,27.25-27.26,24.47,24.47,0,0,1,20,15.86A66,66,0,0,0,83,16.75Z"/><g class="cls-2"><path class="cls-1" d="M83,10.63A72.12,72.12,0,1,0,113.89,147.9a26.74,26.74,0,0,1-17.34-21.82A44.86,44.86,0,0,1,83,128.15a45.41,45.41,0,1,1,45.4-45.4,44.91,44.91,0,0,1-2.07,13.55,26.73,26.73,0,0,1,21.82,17.33A72.09,72.09,0,0,0,83,10.63Z"/></g><g class="cls-3"><path class="cls-1" d="M83,5.75a77,77,0,1,0,33,146.57A28.59,28.59,0,0,1,97.47,129,48,48,0,0,1,83,131.23a48.49,48.49,0,1,1,48.48-48.48,48,48,0,0,1-2.21,14.47,28.55,28.55,0,0,1,23.3,18.51A77,77,0,0,0,83,5.75Z"/></g><circle class="cls-4" cx="119.67" cy="119.41" r="23.22"/></svg>