<svg id="Layer_1" data-name="Layer 1" xmlns="http://www.w3.org/2000/svg" viewBox="0 0 110 110"><defs><style>.cls-1{fill:#fff;}.cls-2{fill:#81c4f0;}</style></defs><title>annual-subscription-price</title><circle class="cls-1" cx="55.28" cy="51.97" r="35.66"/><path class="cls-2" d="M53.31,66.6l-12-8.23a.66.66,0,0,1-.17-.92h0a.67.67,0,0,1,.92-.17l10.77,7.4a.66.66,0,0,0,1-.22L68.37,38.2a.66.66,0,0,1,.9-.25h0a.65.65,0,0,1,.26.89L54.26,66.37A.66.66,0,0,1,53.31,66.6Z"/><path class="cls-1" d="M6.41,51.72A48.87,48.87,0,1,1,68.27,98.83L67.77,97a47,47,0,1,0-24.59.1l-.49,1.83A48.89,48.89,0,0,1,6.41,51.72Z"/><path class="cls-1" d="M47.67,98.69a8.53,8.53,0,1,1,8.53,8.52A8.54,8.54,0,0,1,47.67,98.69Zm15.16,0a6.63,6.63,0,1,0-6.63,6.63A6.64,6.64,0,0,0,62.83,98.69Z"/></svg>