<?xml version="1.0" encoding="utf-8"?>
<!-- Generator: Adobe Illustrator 16.0.0, SVG Export Plug-In . SVG Version: 6.00 Build 0)  -->
<!DOCTYPE svg PUBLIC "-//W3C//DTD SVG 1.1//EN" "http://www.w3.org/Graphics/SVG/1.1/DTD/svg11.dtd">
<svg version="1.1" id="Layer_1" xmlns="http://www.w3.org/2000/svg" xmlns:xlink="http://www.w3.org/1999/xlink" x="0px" y="0px"
	 width="30.8px" height="21.896px" viewBox="0 0 30.8 21.896" enable-background="new 0 0 30.8 21.896" xml:space="preserve">
<g display="none" opacity="0.1">
	<g display="inline">
		<defs>
			<rect id="SVGID_1_" x="-12.163" y="-16.423" width="54.476" height="54.476"/>
		</defs>
		<clipPath id="SVGID_2_">
			<use xlink:href="#SVGID_1_"  overflow="visible"/>
		</clipPath>
		<path clip-path="url(#SVGID_2_)" fill="#F0EFEF" d="M42.314,10.814c0,15.044-12.194,27.238-27.238,27.238
			c-15.044,0-27.239-12.194-27.239-27.238c0-15.043,12.195-27.238,27.239-27.238C30.12-16.424,42.314-4.229,42.314,10.814"/>
	</g>
</g>
<line fill="none" stroke="#FFFFFF" stroke-miterlimit="10" x1="0.678" y1="21.312" x2="30.178" y2="21.312"/>
<path fill="none" stroke="#FFFFFF" stroke-miterlimit="10" d="M18.094,21.312H6.011V2.583c0-1.157,0.947-2.104,2.104-2.104h7.875
	c1.156,0,2.104,0.946,2.104,2.104V21.312z"/>
<path fill="none" stroke="#FFFFFF" stroke-miterlimit="10" d="M24.657,21.312h-6.562V15c0-0.928,0.76-1.688,1.688-1.688h3.188
	c0.929,0,1.688,0.76,1.688,1.688V21.312z"/>
</svg>
