<svg id="Layer_1" data-name="Layer 1" xmlns="http://www.w3.org/2000/svg" viewBox="0 0 64 64"><defs><style>.cls-1{fill:#962fbf;}.cls-2{fill:#fff;}</style></defs><title>loan-worthiness</title><circle class="cls-1" cx="32" cy="32" r="30"/><path class="cls-2" d="M21.53,41.43a9.9,9.9,0,1,1,9.9-9.9A9.9,9.9,0,0,1,21.53,41.43Zm0-19.35A9.45,9.45,0,1,0,31,31.53,9.46,9.46,0,0,0,21.53,22.08Zm0,18.28a8.83,8.83,0,1,1,8.83-8.83A8.84,8.84,0,0,1,21.53,40.36Zm0-17.21a8.39,8.39,0,1,0,8.39,8.38A8.39,8.39,0,0,0,21.53,23.15Z"/><path class="cls-2" d="M22.08,36.88v1.28h-.79V36.88a3.45,3.45,0,0,1-3.44-3.15l1.32-.4c.17,1.48.87,2.28,2.12,2.42v-3.6Q18,31.57,18.14,29.3c.13-1.67,1.18-2.58,3.15-2.71V25.46h.79v1.13a3.06,3.06,0,0,1,3,2.66l-1.28.4a2.07,2.07,0,0,0-1.67-1.82v3.29c2.26.56,3.35,1.53,3.25,2.91q-.15,2.7-3.25,2.85Zm-.79-6V27.77c-1.08.13-1.66.66-1.72,1.57s.54,1.32,1.72,1.58Zm.79,1.48v3.4c1.15-.1,1.74-.67,1.77-1.73,0-.82-.56-1.38-1.77-1.67Z"/><path class="cls-2" d="M43.49,23.62a9,9,0,1,0,9,9A9,9,0,0,0,43.49,23.62Zm3.25,6.56-3,5.24a.54.54,0,0,1-.77.2l-2.58-1.56a.55.55,0,0,1-.18-.76h0a.55.55,0,0,1,.76-.18l1.59,1a.55.55,0,0,0,.77-.2l2.4-4.25a.56.56,0,1,1,1,.55Z"/></svg>