<svg id="Layer_1" data-name="Layer 1" xmlns="http://www.w3.org/2000/svg" viewBox="0 0 713.57 688.56"><defs><style>.cls-1{opacity:0.03;}.cls-2{fill:#fff;}.cls-3{fill:#81c4f0;}</style></defs><title>logo-q-bg2</title><g class="cls-1"><path class="cls-2" d="M356.37,18c-179.78,0-326,146.22-326,326s146.22,326,326,326A324,324,0,0,0,496,638.55a120.88,120.88,0,0,1-78.36-98.65,203.21,203.21,0,0,1-61.28,9.36c-113.19,0-205.26-92.07-205.26-205.26s92.07-205.26,205.26-205.26S561.63,230.81,561.63,344a203.21,203.21,0,0,1-9.36,61.28,120.87,120.87,0,0,1,98.65,78.36A324,324,0,0,0,682.37,344C682.37,164.22,536.16,18,356.37,18Z"/><circle class="cls-3" cx="537.48" cy="525.11" r="114.7"/></g></svg>