<svg id="Layer_1" data-name="Layer 1" xmlns="http://www.w3.org/2000/svg" viewBox="0 0 64 64"><defs><style>.cls-1{fill:#962fbf;}.cls-2{fill:#fff;}</style></defs><title>ridiculously-fast-data</title><circle class="cls-1" cx="32" cy="32" r="30"/><path class="cls-2" d="M37.67,25.9c-1.59,0-2.07.83-2.07,3s2.07,4.56,2.07,4.56,2.08-2.34,2.08-4.56S39.27,25.9,37.67,25.9Zm0,6.94A7.37,7.37,0,0,1,36,29c0-1.89.39-2.59,1.67-2.59s1.68.7,1.68,2.59A7.35,7.35,0,0,1,37.67,32.84Z"/><path class="cls-2" d="M37.68,10.85c-.91,0-1.65.44-1.65,1.05a.49.49,0,0,0,.14.36.79.79,0,0,0,.59.18,1.87,1.87,0,0,0,.49-.07,1.68,1.68,0,0,1,.43-.07,1.75,1.75,0,0,1,.42.07,1.87,1.87,0,0,0,.49.07.81.81,0,0,0,.59-.18.49.49,0,0,0,.14-.36C39.32,11.29,38.58,10.85,37.68,10.85Z"/><path class="cls-2" d="M41.39,20.21c.09-1.16.53-2.51.53-3.87,0-5.66-2.25-9.56-4.25-9.56s-4.24,3.9-4.24,9.56c0,1.37.43,2.72.53,3.87a8.23,8.23,0,0,0-2.66,6.37A20,20,0,0,1,34.49,25a24.64,24.64,0,0,1,3.19-.91,19.6,19.6,0,0,1,3.18.91A21.9,21.9,0,0,1,44,26.58,8.19,8.19,0,0,0,41.39,20.21ZM39.6,12.52a1,1,0,0,1-.75.3,2.52,2.52,0,0,1-.63-.05,2.3,2.3,0,0,0-.54-.1,2.13,2.13,0,0,0-.54.1,2.18,2.18,0,0,1-.63.05,1,1,0,0,1-.76-.3.73.73,0,0,1-.18-.52c0-.87.94-1.58,2.1-1.58s2.11.71,2.11,1.58A.73.73,0,0,1,39.6,12.52Z"/><path class="cls-2" d="M43.68,33.93A2.8,2.8,0,0,0,42,39l-3.51,7a2.87,2.87,0,0,0-1.14-.24,2.48,2.48,0,0,0-.61.07L31.76,34.19a2.82,2.82,0,1,0-4.66-.32L20.31,41.6a2.65,2.65,0,0,0-.89-.16,2.82,2.82,0,1,0,2.81,2.82,2.76,2.76,0,0,0-.6-1.72L28.28,35a2.82,2.82,0,0,0,1.26.3,2.78,2.78,0,0,0,.87-.14L35.3,46.59a2.82,2.82,0,1,0,4.84,2,2.79,2.79,0,0,0-.41-1.46l3.74-7.55.21,0a2.82,2.82,0,1,0,0-5.63ZM19.41,45.46a1.21,1.21,0,1,1,1.21-1.21A1.21,1.21,0,0,1,19.41,45.46Zm8.92-13a1.21,1.21,0,1,1,1.21,1.21A1.21,1.21,0,0,1,28.33,32.45Zm9,17.3a1.21,1.21,0,1,1,1.21-1.2A1.22,1.22,0,0,1,37.33,49.75ZM43.68,38a1.21,1.21,0,1,1,1.21-1.21A1.21,1.21,0,0,1,43.68,38Z"/></svg>