<svg id="Layer_1" data-name="Layer 1" xmlns="http://www.w3.org/2000/svg" viewBox="0 0 110 110"><defs><style>.cls-1{fill:#fff;}.cls-2{fill:none;stroke:#494c50;stroke-miterlimit:10;stroke-width:1.38px;}</style></defs><title>1-month-subscription-price</title><circle class="cls-1" cx="54.71" cy="51.97" r="35.66"/><path class="cls-2" d="M56.32,33.43l5,11.81,12.77,1.09a1,1,0,0,1,.57,1.77L65,56.48,67.87,69a1,1,0,0,1-1.5,1.08l-11-6.61-11,6.61A1,1,0,0,1,42.93,69l2.9-12.49-9.69-8.39a1,1,0,0,1,.58-1.76l12.76-1.1,5-11.8A1,1,0,0,1,56.32,33.43Z"/><path class="cls-1" d="M5.85,51.72A48.86,48.86,0,1,1,67.71,98.83L67.21,97a47,47,0,1,0-24.6.1l-.48,1.83A48.89,48.89,0,0,1,5.85,51.72Z"/><path class="cls-1" d="M47.11,98.69a8.53,8.53,0,1,1,8.52,8.52A8.54,8.54,0,0,1,47.11,98.69Zm15.15,0a6.63,6.63,0,1,0-6.63,6.63A6.63,6.63,0,0,0,62.26,98.69Z"/></svg>