<svg id="Layer_1" data-name="Layer 1" xmlns="http://www.w3.org/2000/svg" viewBox="0 0 110 110"><defs><style>.cls-1{fill:#fff;}.cls-2{fill:#494c50;}</style></defs><title>free-price</title><circle class="cls-1" cx="54.71" cy="51.97" r="35.66"/><path class="cls-2" d="M43.62,41.43C32.49,52.56,32.51,52.54,33.43,53.11c.28.16.64-.11,2.44-1.91L38,49.09V59.2c0,7.61.06,10.16.22,10.32s4,.22,16.33.22c8.87,0,16.23,0,16.4-.11s.29-1.17.29-10.32V49.1l2.07,2.06a18.41,18.41,0,0,0,2.3,2.06,1.15,1.15,0,0,0,.77-.79,53.31,53.31,0,0,0-3.67-3.89L69,44.85V40.53c0-3.1-.06-4.37-.22-4.54s-1.44-.22-4.56-.22H59.93L57.45,33.3a13,13,0,0,0-2.85-2.48C54.36,30.82,50.64,34.42,43.62,41.43ZM69.79,58l0,10.28H39.45V47.62L47,40.05l7.58-7.58,7.62,7.62,7.62,7.62ZM67.55,40.27c0,1.67,0,3-.06,3s-1.39-1.36-3.07-3l-3-3h6.16Z"/><path class="cls-1" d="M5.85,51.72A48.86,48.86,0,1,1,67.71,98.83L67.21,97a47,47,0,1,0-24.6.1l-.48,1.83A48.89,48.89,0,0,1,5.85,51.72Z"/><path class="cls-1" d="M47.11,98.69a8.53,8.53,0,1,1,8.52,8.52A8.54,8.54,0,0,1,47.11,98.69Zm15.15,0a6.63,6.63,0,1,0-6.63,6.63A6.63,6.63,0,0,0,62.26,98.69Z"/></svg>