<svg id="Layer_1" data-name="Layer 1" xmlns="http://www.w3.org/2000/svg" viewBox="0 0 58 58"><defs><style>.cls-1{fill:#efefef;opacity:0.1;}.cls-2{fill:none;stroke:#fff;stroke-miterlimit:10;}.cls-3{fill:#fff;}</style></defs><title>company-contact</title><circle class="cls-1" cx="29.24" cy="28.78" r="27.24"/><line class="cls-2" x1="14.84" y1="39.28" x2="44.34" y2="39.28"/><path class="cls-3" d="M32.76,39.78H19.67V20.55A2.6,2.6,0,0,1,22.28,18h7.87a2.6,2.6,0,0,1,2.61,2.6Zm-12.09-1H31.76V20.55A1.61,1.61,0,0,0,30.15,19H22.28a1.61,1.61,0,0,0-1.61,1.6Z"/><path class="cls-3" d="M39.32,39.78H31.76V33a2.19,2.19,0,0,1,2.18-2.19h3.19A2.19,2.19,0,0,1,39.32,33Zm-6.56-1h5.56V33a1.19,1.19,0,0,0-1.19-1.19H33.94A1.18,1.18,0,0,0,32.76,33Z"/></svg>