<svg id="Layer_1" data-name="Layer 1" xmlns="http://www.w3.org/2000/svg" viewBox="0 0 100 100"><defs><style>.cls-1{fill:#81c4f0;}.cls-2{fill:#fff;}</style></defs><title>email-contact-info</title><circle class="cls-1" cx="49" cy="50.04" r="31"/><path class="cls-1" d="M48.63,94.51a45,45,0,1,1,42-61.08l-2.68,1a42.11,42.11,0,1,0,.74,28l2.73.89A44.83,44.83,0,0,1,48.63,94.51Z"/><path class="cls-1" d="M90.55,55.81a7.89,7.89,0,1,1,7.89-7.89A7.9,7.9,0,0,1,90.55,55.81Zm0-12.9a5,5,0,1,0,5,5A5,5,0,0,0,90.55,42.91Z"/><path class="cls-2" d="M37,46.9l3.42,2.38,4.37,3,.71.51.9.63q.36.24.87.54a5.09,5.09,0,0,0,1,.45,2.67,2.67,0,0,0,.84.15h0a2.67,2.67,0,0,0,.84-.15,5.09,5.09,0,0,0,1-.45l.86-.54.9-.63.71-.51,7.82-5.43a7.76,7.76,0,0,0,2-2A4.37,4.37,0,0,0,64,42.33a2.68,2.68,0,0,0-2.67-2.67H36.76a2.38,2.38,0,0,0-2,.87,3.38,3.38,0,0,0-.69,2.17A3.86,3.86,0,0,0,35,45,8.21,8.21,0,0,0,37,46.9Z"/><path class="cls-2" d="M62.24,48.56Q56.81,52.24,54,54.29q-.93.69-1.53,1.08a9.26,9.26,0,0,1-1.56.8,4.79,4.79,0,0,1-1.82.41h0a4.83,4.83,0,0,1-1.82-.41,9.26,9.26,0,0,1-1.56-.8q-.58-.39-1.53-1.08-2.24-1.65-8.23-5.73a8.33,8.33,0,0,1-1.67-1.45V60.29A2.66,2.66,0,0,0,36.88,63H61.25a2.56,2.56,0,0,0,1.87-.78,2.6,2.6,0,0,0,.77-1.88V47.11A8.58,8.58,0,0,1,62.24,48.56Z"/></svg>