<?xml version="1.0" encoding="utf-8"?>
<!-- Generator: Adobe Illustrator 16.0.0, SVG Export Plug-In . SVG Version: 6.00 Build 0)  -->
<!DOCTYPE svg PUBLIC "-//W3C//DTD SVG 1.1//EN" "http://www.w3.org/Graphics/SVG/1.1/DTD/svg11.dtd">
<svg version="1.1" id="Layer_1" xmlns="http://www.w3.org/2000/svg" xmlns:xlink="http://www.w3.org/1999/xlink" x="0px" y="0px"
	 width="35.234px" height="25.82px" viewBox="0 0 35.234 25.82" enable-background="new 0 0 35.234 25.82" xml:space="preserve">
<g opacity="0.63">
	<g>
		<defs>
			<rect id="SVGID_1_" width="35.497" height="25.82"/>
		</defs>
		<clipPath id="SVGID_2_">
			<use xlink:href="#SVGID_1_"  overflow="visible"/>
		</clipPath>
		<path clip-path="url(#SVGID_2_)" fill="#FFFFFF" d="M35.496,12.465c-0.014-0.193-0.139-0.361-0.32-0.428L2.33,0.031
			C2.154-0.033,1.955,0.01,1.821,0.141C1.686,0.272,1.64,0.47,1.701,0.648l3.232,9.461c0.059,0.173,0.21,0.299,0.392,0.325
			l10.782,1.558l-9.826,0.139c-0.141,0.002-0.273,0.064-0.365,0.171l-5.798,6.764c-0.129,0.149-0.155,0.362-0.066,0.538
			c0.024,0.047,0.055,0.089,0.091,0.125c0.099,0.099,0.237,0.152,0.381,0.142l7.272-0.534l2.175,6.153
			c0.047,0.133,0.15,0.24,0.281,0.291c0.132,0.053,0.28,0.045,0.406-0.021L35.234,12.93C35.406,12.84,35.509,12.657,35.496,12.465"
			/>
	</g>
</g>
</svg>
