<svg id="Layer_1" data-name="Layer 1" xmlns="http://www.w3.org/2000/svg" viewBox="0 0 100 100"><defs><style>.cls-1{fill:#81c4f0;}.cls-2{fill:#fff;}</style></defs><title>phone-contact-info</title><circle class="cls-1" cx="49" cy="50.04" r="31"/><path class="cls-1" d="M48.63,94.51a45,45,0,1,1,42-61.08l-2.68,1a42.11,42.11,0,1,0,.74,28l2.73.89A44.83,44.83,0,0,1,48.63,94.51Z"/><path class="cls-1" d="M90.55,55.81a7.89,7.89,0,1,1,7.89-7.89A7.9,7.9,0,0,1,90.55,55.81Zm0-12.9a5,5,0,1,0,5,5A5,5,0,0,0,90.55,42.91Z"/><path class="cls-2" d="M62.4,57.72l-4.11-4.11a2.13,2.13,0,0,0-3,.06L53.2,55.74l-.41-.23a21.16,21.16,0,0,1-5-3.6,21.07,21.07,0,0,1-3.61-5c-.07-.14-.15-.27-.22-.4l1.39-1.39.68-.68a2.13,2.13,0,0,0,.06-3L42,37.31a2.14,2.14,0,0,0-3,.06l-1.16,1.17,0,0a6.58,6.58,0,0,0-1,1.68A7.52,7.52,0,0,0,36.47,42c-.54,4.5,1.52,8.61,7.1,14.19,7.71,7.71,13.92,7.13,14.19,7.1a7,7,0,0,0,1.71-.43,6.76,6.76,0,0,0,1.68-1l0,0,1.17-1.15A2.13,2.13,0,0,0,62.4,57.72Z"/></svg>