<svg id="Layer_1" data-name="Layer 1" xmlns="http://www.w3.org/2000/svg" viewBox="0 0 58 58"><defs><style>.cls-1{fill:#efefef;opacity:0.1;}.cls-2{fill:#fff;}</style></defs><title>phone-contact</title><circle class="cls-1" cx="29.24" cy="28.78" r="27.24"/><path class="cls-2" d="M35.27,40.47c-1.36,0-5.9-.44-11.23-5.78-4.53-4.53-6.2-7.9-5.75-11.63a5.77,5.77,0,0,1,.36-1.46,6.34,6.34,0,0,1,.57-1.1l0-.05.33-.38.91-.93a2.2,2.2,0,0,1,3.1,0l3.25,3.25a2.18,2.18,0,0,1-.05,3.09l-1.37,1.37a15.72,15.72,0,0,0,2.76,3.82,15.74,15.74,0,0,0,3.82,2.76L33.29,32a2.2,2.2,0,0,1,3.1,0l3.25,3.25a2.2,2.2,0,0,1,0,3.1l-1.27,1.23-.07-.06a5.84,5.84,0,0,1-1.11.58,6,6,0,0,1-1.48.37S35.5,40.47,35.27,40.47ZM20.36,20.62l-.09.13A4.61,4.61,0,0,0,19.59,22a5,5,0,0,0-.31,1.22c-.41,3.39,1.18,6.52,5.47,10.81,5.91,5.91,10.62,5.49,10.81,5.47a4.94,4.94,0,0,0,1.23-.31,4.72,4.72,0,0,0,1.2-.68l.16-.13.74-.72a1.21,1.21,0,0,0,0-1.69l-3.25-3.24a1.19,1.19,0,0,0-1.68,0l-1.9,1.9-.66-.36a16.7,16.7,0,0,1-4-2.93,16.9,16.9,0,0,1-2.94-4.05l-.36-.65L26,24.74a1.21,1.21,0,0,0,0-1.69L22.8,19.81a1.19,1.19,0,0,0-1.68,0Z"/></svg>