<svg id="Layer_1" data-name="Layer 1" xmlns="http://www.w3.org/2000/svg" viewBox="0 0 144 144"><defs><style>.cls-1{fill:#fff;}.cls-2{opacity:0.2;}.cls-3{opacity:0.1;}.cls-4{fill:#81c4f0;}</style></defs><title>contact-logo</title><path class="cls-1" d="M71.5,14.4a58.29,58.29,0,1,0,25,111,21.61,21.61,0,0,1-14-17.64,36.31,36.31,0,0,1-11,1.68,36.7,36.7,0,1,1,36.7-36.7,36.29,36.29,0,0,1-1.67,11,21.63,21.63,0,0,1,17.64,14A58.28,58.28,0,0,0,71.5,14.4Z"/><g class="cls-2"><path class="cls-1" d="M71.5,9A63.68,63.68,0,1,0,98.78,130.23,23.64,23.64,0,0,1,83.47,111a39.7,39.7,0,0,1-12,1.83,40.11,40.11,0,1,1,38.27-28.13A23.58,23.58,0,0,1,129,100,63.66,63.66,0,0,0,71.5,9Z"/></g><g class="cls-3"><path class="cls-1" d="M71.5,4.69a68,68,0,1,0,29.13,129.44,25.19,25.19,0,0,1-16.34-20.58,42.8,42.8,0,1,1,28.08-28.08,25.21,25.21,0,0,1,20.57,16.35A68,68,0,0,0,71.5,4.69Z"/></g><circle class="cls-4" cx="103.89" cy="105.07" r="20.51"/></svg>