<svg id="Layer_1" data-name="Layer 1" xmlns="http://www.w3.org/2000/svg" viewBox="0 0 64 64"><defs><style>.cls-1{fill:#962fbf;}.cls-2{fill:#fff;}</style></defs><title>fraud-risk</title><circle class="cls-1" cx="32" cy="32" r="30"/><path class="cls-2" d="M32.62,48.5l-.35-.17a48.62,48.62,0,0,1-6.54-4C21.24,41.13,19,38.08,19,35.31V20.18l.39-.22a31.45,31.45,0,0,1,4.05-1.73,29.06,29.06,0,0,1,9.33-1.73,27.92,27.92,0,0,1,8.88,1.69,29.61,29.61,0,0,1,4,1.7l.4.21V35.34a7.72,7.72,0,0,1-1.69,4.12,20.92,20.92,0,0,1-3.89,4.07A43.6,43.6,0,0,1,33,48.32ZM20.49,21.09V35.31c0,2.23,2.12,4.93,6.13,7.83a49,49,0,0,0,6,3.66,42.3,42.3,0,0,0,6.74-4.33A20,20,0,0,0,43,38.75a7.07,7.07,0,0,0,1.54-3.4h0V21a31.92,31.92,0,0,0-3.42-1.41A26.17,26.17,0,0,0,32.75,18,30,30,0,0,0,20.49,21.09Z"/><path class="cls-2" d="M31,38.87h3v3H31v-3Z"/><path class="cls-2" d="M31,23.13h3v14H31v-14Z"/></svg>