<svg id="Layer_1" data-name="Layer 1" xmlns="http://www.w3.org/2000/svg" viewBox="0 0 64 64"><defs><style>.cls-1{fill:#962fbf;}.cls-2{fill:#fff;}</style></defs><title>loan-performance</title><circle class="cls-1" cx="32" cy="32" r="30"/><path class="cls-2" d="M32.73,34.51a9,9,0,1,0-9-9A9,9,0,0,0,32.73,34.51Zm0-16.95a8,8,0,1,1-8,8A8,8,0,0,1,32.73,17.56Z"/><path class="cls-2" d="M27.14,41.28c-.26-.23-.42-.4-.45-.42L25.4,39.47l1.75.72a14.5,14.5,0,0,0,4.24,1h5.37c.39,0,1.79-.2,1.79-.85s0-.85-3.53-.85a10.37,10.37,0,0,1-4.61-1.35l0,0s-2.21-1.62-2.87-2L27.27,36a5.34,5.34,0,0,0-3-1.14,5.85,5.85,0,0,0-2.12.46c-1.43.57-4.27,1.87-5.28,2.33l3.22,7.15,1.43-.93a3,3,0,0,1,1.64-.6,3.64,3.64,0,0,1,1.65.5l1.33.69c1.62.84,4.06,2.1,4.79,2.46a5.26,5.26,0,0,0,2.26.61,4.52,4.52,0,0,0,2.5-.93l.57-.35c1.25-.71,9.93-6.47,10.84-7.11s1.27-1.09,1.34-1.52a.81.81,0,0,0-.21-.63,1.3,1.3,0,0,0-1.11-.51,4.54,4.54,0,0,0-2.2.76l-.82.49.21-.93a.72.72,0,0,0-.12-.65,1.11,1.11,0,0,0-.89-.36,2.83,2.83,0,0,0-2.11.81l-.33.34-.29-.38a1.56,1.56,0,0,0-1.28-.79,5.09,5.09,0,0,0-2.34,1C36.53,37,35,37.79,35,37.79l-1.84-.32s2.51-1.4,3.35-1.92a4.32,4.32,0,0,1,2.79-.64,2.19,2.19,0,0,1,1.65.78,3.75,3.75,0,0,1,2.36-.76,1.94,1.94,0,0,1,1.53.66,1.42,1.42,0,0,1,.28.58,4.59,4.59,0,0,1,2-.55,2.12,2.12,0,0,1,1.77.83,1.59,1.59,0,0,1,.36,1.26,3.39,3.39,0,0,1-1.68,2.07c-.91.64-9.64,6.43-10.9,7.16l-.55.33a5.34,5.34,0,0,1-2.93,1.06h0a6,6,0,0,1-2.62-.7c-.74-.35-3.1-1.57-4.81-2.46l-1.33-.69a2.9,2.9,0,0,0-1.27-.4,2.22,2.22,0,0,0-1.21.47L19.76,46l-4-8.77.37-.18c.16-.07,3.92-1.82,5.69-2.52A6.69,6.69,0,0,1,24.29,34a6.11,6.11,0,0,1,3.42,1.26l.23.15c.66.41,2.67,1.88,2.91,2A9.63,9.63,0,0,0,35,38.69c3,0,4.36.07,4.36,1.67S36.8,42,36.77,42H31.39A9.87,9.87,0,0,1,29,41.67l-1.88-.39Z"/><path class="cls-2" d="M32.73,34.72a9.18,9.18,0,1,1,9.18-9.18A9.19,9.19,0,0,1,32.73,34.72Zm0-17.94a8.77,8.77,0,1,0,8.76,8.76A8.77,8.77,0,0,0,32.73,16.78Zm0,16.95a8.19,8.19,0,1,1,8.19-8.19A8.2,8.2,0,0,1,32.73,33.73Zm0-16a7.78,7.78,0,1,0,7.78,7.78A7.79,7.79,0,0,0,32.73,17.77Z"/><path class="cls-2" d="M33.21,48.54a6.21,6.21,0,0,1-2.71-.72c-.74-.36-3.09-1.57-4.8-2.46h0l-1.33-.68a2.67,2.67,0,0,0-1.17-.39,2.07,2.07,0,0,0-1.09.44l-2.23,1.45a.2.2,0,0,1-.17,0,.24.24,0,0,1-.13-.11l-3.95-8.77a.2.2,0,0,1,.1-.27l.37-.17c.16-.08,3.93-1.83,5.7-2.53a6.89,6.89,0,0,1,2.51-.54,6.26,6.26,0,0,1,3.53,1.3l.23.14c.65.42,2.63,1.85,2.9,2A9.43,9.43,0,0,0,35,38.49c2.85,0,4.57,0,4.57,1.88s-2.79,1.88-2.82,1.88H31.39A10.12,10.12,0,0,1,29,41.88l-1.88-.4a.2.2,0,0,1-.09,0c-.27-.24-.43-.41-.46-.44l-1.3-1.38a.23.23,0,0,1,0-.26.2.2,0,0,1,.25-.07l1.76.72a14.1,14.1,0,0,0,4.16,1h5.36c.58,0,1.59-.26,1.59-.64s0-.36-.3-.45a13.14,13.14,0,0,0-3-.2,10.65,10.65,0,0,1-4.71-1.37h0l0,0h0s-2.21-1.61-2.86-2l-.2-.13h0A5.2,5.2,0,0,0,24.29,35a5.57,5.57,0,0,0-2.05.45c-1.33.53-3.87,1.68-5.08,2.24l3,6.74,1.22-.79A3.17,3.17,0,0,1,23.18,43a3.82,3.82,0,0,1,1.74.52l1.33.69h0c1.61.84,4,2.1,4.78,2.45a5,5,0,0,0,2.17.59,4.33,4.33,0,0,0,2.39-.9l.57-.34c1.25-.72,9.93-6.47,10.83-7.11s1.22-1.13,1.25-1.38a.6.6,0,0,0-.15-.48,1.14,1.14,0,0,0-1-.43,4.39,4.39,0,0,0-2.09.74l-.82.48a.2.2,0,0,1-.3-.22l.2-.93a.52.52,0,0,0-.08-.48,1,1,0,0,0-.73-.28,2.67,2.67,0,0,0-2,.75l-.34.34a.19.19,0,0,1-.16.06.21.21,0,0,1-.15-.08l-.28-.38c-.39-.5-.71-.71-1.12-.71a4.94,4.94,0,0,0-2.24,1c-.43.27-1.89,1-2,1.08A.19.19,0,0,1,35,38l-1.83-.32A.19.19,0,0,1,33,37.5a.19.19,0,0,1,.1-.21s2.52-1.41,3.34-1.92a4.07,4.07,0,0,1,2.31-.68h.58a2.34,2.34,0,0,1,1.68.71,4.06,4.06,0,0,1,2.34-.69,2.15,2.15,0,0,1,1.69.74,1.69,1.69,0,0,1,.24.41,4.64,4.64,0,0,1,1.88-.46,2.33,2.33,0,0,1,1.94.91,1.79,1.79,0,0,1,.4,1.41,3.6,3.6,0,0,1-1.76,2.21c-.92.66-9.66,6.45-10.93,7.18l-.53.33a5.52,5.52,0,0,1-3,1.09Zm-10-4.67a3.05,3.05,0,0,1,1.36.43l1.33.69h0c1.71.88,4.05,2.09,4.79,2.45a5.83,5.83,0,0,0,2.53.67h0a5.11,5.11,0,0,0,2.82-1l.55-.34c1.26-.73,10-6.5,10.9-7.15S49,38.3,49.07,37.68a1.4,1.4,0,0,0-.32-1.1,2,2,0,0,0-1.61-.75,4.47,4.47,0,0,0-1.92.52.2.2,0,0,1-.17,0,.24.24,0,0,1-.12-.14,1.22,1.22,0,0,0-.24-.5,1.73,1.73,0,0,0-1.37-.58,3.56,3.56,0,0,0-2.23.71.23.23,0,0,1-.28,0,2,2,0,0,0-1.5-.71h-.58a3.64,3.64,0,0,0-2.09.61c-.6.37-2.07,1.21-2.85,1.64l1.2.21c.28-.15,1.49-.8,1.87-1a5.21,5.21,0,0,1,2.46-1,1.79,1.79,0,0,1,1.44.87l.15.19.16-.17a3.08,3.08,0,0,1,2.26-.87,1.35,1.35,0,0,1,1.05.43,1,1,0,0,1,.16.83l-.1.46.4-.24a4.84,4.84,0,0,1,2.3-.79,1.55,1.55,0,0,1,1.29.59,1,1,0,0,1,.24.79c-.07.49-.54,1-1.42,1.65s-9.61,6.41-10.86,7.13l-.57.34a4.61,4.61,0,0,1-2.6,1,5.34,5.34,0,0,1-2.35-.64c-.73-.35-3.18-1.62-4.8-2.45l.09-.19-.09.18-1.33-.68a3.36,3.36,0,0,0-1.55-.48,2.93,2.93,0,0,0-1.54.57l-1.42.92a.17.17,0,0,1-.17,0,.22.22,0,0,1-.13-.12l-3.24-7.13a.22.22,0,0,1,.11-.28c1.11-.51,3.87-1.77,5.29-2.33a5.88,5.88,0,0,1,2.2-.48,5.58,5.58,0,0,1,3.09,1.17l0,0,.2.12c.66.41,2.77,2,2.88,2l0,0A10.28,10.28,0,0,0,35,39.31a13,13,0,0,1,3.15.21.73.73,0,0,1,.59.84c0,.26-.16.62-.9.86a4.46,4.46,0,0,1-1.09.2H31.39a14.59,14.59,0,0,1-4.32-1L26.19,40l.65.69s.16.17.39.38l1.83.38h0a9.4,9.4,0,0,0,2.32.36h5.37s2.41-.09,2.41-1.47-1-1.47-4.15-1.47a10,10,0,0,1-4.28-1.25h0c-.23-.17-2.24-1.63-2.89-2l-.23-.14a6,6,0,0,0-3.31-1.24,6.48,6.48,0,0,0-2.35.51c-1.77.69-5.53,2.44-5.68,2.52l-.19.08,3.77,8.37,2-1.32a2.46,2.46,0,0,1,1.31-.5Z"/><path class="cls-2" d="M33.24,30.5v1.19h-.73V30.5a3.2,3.2,0,0,1-3.2-2.92l1.23-.37c.16,1.37.81,2.12,2,2.24V26.12c-2-.37-3-1.25-2.92-2.65s1.09-2.39,2.92-2.51V19.91h.73V21A2.84,2.84,0,0,1,36,23.43l-1.19.37a1.92,1.92,0,0,0-1.55-1.69v3.06c2.1.51,3.1,1.41,3,2.69-.09,1.67-1.09,2.55-3,2.64ZM32.51,25V22.06c-1,.12-1.54.6-1.6,1.46s.5,1.22,1.6,1.46Zm.73,1.37V29.5c1.07-.09,1.61-.62,1.64-1.6,0-.76-.52-1.28-1.64-1.55Z"/></svg>