<svg id="Layer_1" data-name="Layer 1" xmlns="http://www.w3.org/2000/svg" viewBox="0 0 100 100"><defs><style>.cls-1{fill:#81c4f0;}</style></defs><title>about-us-menu-selected</title><path class="cls-1" d="M47.57,96.22a46,46,0,1,1,43-62.47l-2.74,1a43.06,43.06,0,1,0,.76,28.68l2.79.91A45.85,45.85,0,0,1,47.57,96.22Z"/><path class="cls-1" d="M90.45,56.64a8.07,8.07,0,1,1,8.06-8.07A8.08,8.08,0,0,1,90.45,56.64Zm0-13.19a5.13,5.13,0,1,0,5.13,5.12A5.13,5.13,0,0,0,90.45,43.45Z"/><path class="cls-1" d="M47.38,25.25a25,25,0,0,0,0,50A24.7,24.7,0,0,0,55.21,74a10.7,10.7,0,0,1-4.67-7,16.44,16.44,0,0,1-3.16.3,17,17,0,1,1,17-17,16.52,16.52,0,0,1-.59,4.41,10.73,10.73,0,0,1,6.68,5.17A25,25,0,0,0,47.38,25.25Z"/><circle class="cls-1" cx="61.08" cy="65.02" r="9.79"/></svg>