<svg id="Layer_1" data-name="Layer 1" xmlns="http://www.w3.org/2000/svg" viewBox="0 0 100 100"><defs><style>.cls-1{fill:#e3e3e3;}</style></defs><title>contact-us-menu</title><path class="cls-1" d="M30.94,40.91l5.5,3.83q4.59,3.18,7,4.9l1.14.81c.58.43,1.06.77,1.45,1s.85.55,1.39.87a8.12,8.12,0,0,0,1.55.72,4.27,4.27,0,0,0,1.34.24h0a4.33,4.33,0,0,0,1.35-.24,8.06,8.06,0,0,0,1.54-.72c.55-.32,1-.62,1.4-.87s.87-.6,1.45-1l1.14-.81q2.46-1.72,12.56-8.73a12.7,12.7,0,0,0,3.28-3.3,7.09,7.09,0,0,0,1.32-4.06,4.11,4.11,0,0,0-1.28-3,4.16,4.16,0,0,0-3-1.26H30.62a3.86,3.86,0,0,0-3.19,1.39,5.44,5.44,0,0,0-1.11,3.49,6.26,6.26,0,0,0,1.48,3.67A13.31,13.31,0,0,0,30.94,40.91Z"/><path class="cls-1" d="M71.6,43.57q-8.73,5.93-13.26,9.21c-1,.75-1.83,1.33-2.46,1.75a14.58,14.58,0,0,1-2.52,1.28,7.6,7.6,0,0,1-2.93.66h0a7.6,7.6,0,0,1-2.93-.66,14.58,14.58,0,0,1-2.52-1.28c-.63-.42-1.45-1-2.46-1.75q-3.6-2.64-13.23-9.21a13.7,13.7,0,0,1-2.69-2.32v21.2a4.27,4.27,0,0,0,4.26,4.27H70a4.27,4.27,0,0,0,4.26-4.27V41.25A14.62,14.62,0,0,1,71.6,43.57Z"/></svg>