<svg id="Layer_1" data-name="Layer 1" xmlns="http://www.w3.org/2000/svg" viewBox="0 0 100 100"><defs><style>.cls-1{fill:#e3e3e3;}</style></defs><title>resources-menu</title><path class="cls-1" d="M50.42,30.23a6.38,6.38,0,1,0-6.37-6.37A6.37,6.37,0,0,0,50.42,30.23Z"/><path class="cls-1" d="M59,33.32h0c-.83-.21-3.37-.56-3.37-.56a.57.57,0,0,0-.7.34L51.07,43.6a.69.69,0,0,1-1.3,0L46,33.1a.58.58,0,0,0-.53-.37c-.06,0-2.67.37-3.54.58A5.43,5.43,0,0,0,38,38.68v8.73a2.37,2.37,0,0,0,2.37,2.37h20.1a2.37,2.37,0,0,0,2.37-2.37V38.65A5.6,5.6,0,0,0,59,33.32Z"/><path class="cls-1" d="M51.86,32.56a.79.79,0,0,0-.6-.25H49.58a.79.79,0,0,0-.6.25.77.77,0,0,0-.11.92l.9,1.35-.42,3.56.83,2.21a.26.26,0,0,0,.48,0l.83-2.21-.42-3.56.9-1.35A.79.79,0,0,0,51.86,32.56Z"/><path class="cls-1" d="M66.28,63a4.72,4.72,0,1,0-4.72-4.71A4.71,4.71,0,0,0,66.28,63Z"/><path class="cls-1" d="M72.61,65.29h0c-.62-.15-2.5-.42-2.5-.42a.42.42,0,0,0-.51.26L66.76,72.9a.51.51,0,0,1-1,0L63,65.13a.42.42,0,0,0-.4-.27s-2,.27-2.61.43a4,4,0,0,0-2.87,4v6.46a1.75,1.75,0,0,0,1.75,1.75H73.71a1.75,1.75,0,0,0,1.75-1.75V69.23a4.15,4.15,0,0,0-2.85-3.94Z"/><path class="cls-1" d="M67.34,64.73a.56.56,0,0,0-.44-.19H65.65a.59.59,0,0,0-.52.87l.67,1L65.49,69l.61,1.64a.19.19,0,0,0,.35,0L67.07,69l-.32-2.63.67-1A.57.57,0,0,0,67.34,64.73Z"/><path class="cls-1" d="M34.48,63a4.72,4.72,0,1,0-4.72-4.71A4.72,4.72,0,0,0,34.48,63Z"/><path class="cls-1" d="M40.81,65.29h0c-.61-.15-2.49-.42-2.49-.42a.43.43,0,0,0-.52.26L35,72.9a.51.51,0,0,1-1,0l-2.83-7.77a.41.41,0,0,0-.39-.27s-2,.27-2.62.43a4,4,0,0,0-2.87,4v6.46A1.75,1.75,0,0,0,27,77.47H41.91a1.75,1.75,0,0,0,1.76-1.75V69.23a4.16,4.16,0,0,0-2.86-3.94Z"/><path class="cls-1" d="M35.55,64.73a.6.6,0,0,0-.45-.19H33.86a.58.58,0,0,0-.45.19.59.59,0,0,0-.08.68l.67,1L33.69,69l.61,1.64a.19.19,0,0,0,.35,0L35.27,69,35,66.41l.66-1A.57.57,0,0,0,35.55,64.73Z"/><path class="cls-1" d="M47.18,52.71a.34.34,0,0,0,.2.62c.19,0,.15.08-.29.36A5.56,5.56,0,0,0,44.62,58c0,.48,0,.58.19.63.32.1.47-.11.54-.71a5.72,5.72,0,0,1,.73-2.19,6,6,0,0,1,1.69-1.61l.48-.26,0,.36c0,.43.2.66.49.48a4.57,4.57,0,0,0,.68-1.93c0-.14-.19-.17-.82-.17a6.32,6.32,0,0,1-1-.06A.4.4,0,0,0,47.18,52.71Z"/><path class="cls-1" d="M49.77,53c-.12.37,0,.48.71.56a5.45,5.45,0,0,1,2.13.68,6.61,6.61,0,0,1,1.64,1.69l.16.29h-.36c-.32,0-.36,0-.39.24s.08.35.7.82c1,.73,1,.7,1.43-.43.34-1,.35-1.09.18-1.26s-.48-.14-.6.18c0,.15-.13.29-.16.29a1.69,1.69,0,0,1-.3-.47,6.45,6.45,0,0,0-2.36-2.21,4.59,4.59,0,0,0-2.17-.55C49.92,52.82,49.81,52.85,49.77,53Z"/><path class="cls-1" d="M55,58a1.75,1.75,0,0,0-.21.81,4.32,4.32,0,0,1-1.23,2.72,4.47,4.47,0,0,1-1.45,1.08c-.23.09-.24.08-.23-.26s0-.36-.28-.36-.32.07-.66.73c-.4.82-.44,1-.23,1.17a6.09,6.09,0,0,0,2,.25c.12,0,.18-.15.18-.35s-.05-.29-.3-.35l-.3-.06.52-.3a5.92,5.92,0,0,0,2.58-3.4c.2-.74.2-1.63,0-1.71A.38.38,0,0,0,55,58Z"/><path class="cls-1" d="M44.27,58.84c-.18.14-.18.16,0,1.08.2,1.18.42,1.48.8,1.09.13-.13.19-.09.46.34a5.66,5.66,0,0,0,4.28,2.45c.55,0,.78-.16.67-.48,0-.15-.17-.21-.52-.25a4.76,4.76,0,0,1-3-1.2,5,5,0,0,1-1.26-1.76l-.2-.46.28.06a.43.43,0,0,0,.46-.13c.24-.26,0-.55-.43-.63L45,58.79l-.5-.09A1.12,1.12,0,0,0,44.27,58.84Z"/></svg>