<svg id="Layer_1" data-name="Layer 1" xmlns="http://www.w3.org/2000/svg" viewBox="0 0 64 64"><defs><style>.cls-1{fill:#962fbf;}.cls-2{fill:#fff;}</style></defs><title>gorgeous</title><circle class="cls-1" cx="32" cy="32" r="30"/><path class="cls-2" d="M50,45.82H13.68a2,2,0,0,1-2-2V20.67a2,2,0,0,1,2-2H50a2,2,0,0,1,2,2v23.2A2,2,0,0,1,50,45.82ZM13.68,19.49a1.17,1.17,0,0,0-1.17,1.18v23.2A1.17,1.17,0,0,0,13.68,45H50a1.18,1.18,0,0,0,1.18-1.17V20.67A1.18,1.18,0,0,0,50,19.49Z"/><rect class="cls-2" x="12.17" y="23.57" width="39.49" height="0.78"/><circle class="cls-2" cx="41.09" cy="21.69" r="0.78"/><circle class="cls-2" cx="44.62" cy="21.69" r="0.78"/><circle class="cls-2" cx="48.14" cy="21.69" r="0.78"/><rect class="cls-2" x="17.21" y="26.39" width="29.76" height="7.83" rx="0.81" ry="0.81"/><rect class="cls-2" x="17.21" y="35.01" width="20.36" height="7.83" rx="0.81" ry="0.81"/><rect class="cls-2" x="38.35" y="35.01" width="8.62" height="7.83" rx="0.81" ry="0.81"/></svg>