<svg id="Layer_1" data-name="Layer 1" xmlns="http://www.w3.org/2000/svg" viewBox="0 0 64 64"><defs><style>.cls-1{fill:#962fbf;}.cls-2{fill:#fff;}</style></defs><title>simplified-access</title><circle class="cls-1" cx="32" cy="32" r="30"/><path class="cls-2" d="M44.9,43.63h-13a1.56,1.56,0,0,1-1.56-1.56V26a1.56,1.56,0,0,1,1.56-1.56H45.76A1.56,1.56,0,0,1,47.32,26v5.87h-1V26a.56.56,0,0,0-.56-.56H31.92a.56.56,0,0,0-.56.56v16.1a.56.56,0,0,0,.56.56h13Z"/><path class="cls-2" d="M50.72,45.5H45.91a1.41,1.41,0,0,1-1.41-1.41V32.88a1.41,1.41,0,0,1,1.41-1.41h4.81a1.41,1.41,0,0,1,1.41,1.41V44.09A1.41,1.41,0,0,1,50.72,45.5Zm-4.81-13a.41.41,0,0,0-.41.41V44.09a.42.42,0,0,0,.41.41h4.81a.41.41,0,0,0,.41-.41V32.88a.41.41,0,0,0-.41-.41Z"/><path class="cls-2" d="M30.76,34.88H14.43a1.65,1.65,0,0,1-1.66-1.65V21a1.66,1.66,0,0,1,1.66-1.66H35.08A1.66,1.66,0,0,1,36.74,21v3.82h-1V21a.66.66,0,0,0-.66-.66H14.43a.66.66,0,0,0-.66.66v12.2a.65.65,0,0,0,.66.65H30.76Z"/><path class="cls-2" d="M30.78,40.12H12a1.66,1.66,0,0,1-1.66-1.66v-.9A1.66,1.66,0,0,1,12,35.9H30.79v1H12a.66.66,0,0,0-.66.66v.9a.66.66,0,0,0,.66.66H30.78Z"/></svg>