<svg id="Layer_1" data-name="Layer 1" xmlns="http://www.w3.org/2000/svg" viewBox="0 0 64 64"><defs><style>.cls-1{fill:#962fbf;}.cls-2{fill:#fff;}</style></defs><title>product-revenue</title><circle class="cls-1" cx="32" cy="32" r="30"/><path class="cls-2" d="M32.92,38.28v-16a.71.71,0,0,0-.71-.71h0a.71.71,0,0,0-.71.71V39.7a.71.71,0,0,0,.71.71H49.79a.71.71,0,0,0,.71-.71h0a.71.71,0,0,0-.71-.71H33.63a.71.71,0,0,1-.71-.71Z"/><path class="cls-2" d="M48.93,22.66a1.51,1.51,0,0,0-1.51,1.51,1.47,1.47,0,0,0,.42,1L43,33.62l-.13,0-1.9-4.41a1.47,1.47,0,0,0,.35-1,1.51,1.51,0,1,0-2.55,1.09l-3.1,5h-.12A1.51,1.51,0,1,0,37,35.83a1.46,1.46,0,0,0-.46-1.08l3.11-5h.1l.28,0,1.8,4.19a1.53,1.53,0,0,0-.6,1.21,1.51,1.51,0,0,0,3,0,1.55,1.55,0,0,0-.4-1l4.88-8.41h.18a1.51,1.51,0,0,0,0-3Z"/><path class="cls-2" d="M20.61,25.45h0S20.63,25.46,20.61,25.45Zm-6.52,4.73L20,33.42a1.05,1.05,0,0,0,1.3,0l5.85-3.24a1.12,1.12,0,0,0,0-1.59l-5.85-3.8a1,1,0,0,0-1.3,0l-5.86,3.8A1.1,1.1,0,0,0,14.09,30.18Zm6.51-4.74h0l6,3.94-6,3.09-6-3.09Zm0,14.1-6-3.38s-.53-.29-.92-.57c0,.41.08,1.16.39,1.37L20,40.19a1.05,1.05,0,0,0,1.3,0L27.1,37c.29-.17.4-1,.4-1.37l-.92.57Zm-6.51-6L20,36.8a1.05,1.05,0,0,0,1.3,0l5.85-3.23c.29-.17.4-.94.4-1.36l-.92.56-6,3.39-6-3.39a9.84,9.84,0,0,1-.92-.56C13.7,32.62,13.78,33.37,14.09,33.57Z"/></svg>