<svg id="Layer_1" data-name="Layer 1" xmlns="http://www.w3.org/2000/svg" viewBox="0 0 100 100"><defs><style>.cls-1{fill:#81c4f0;}.cls-2{fill:#fff;}</style></defs><title>address-contact-info</title><circle class="cls-1" cx="49" cy="50.04" r="31"/><path class="cls-1" d="M48.63,94.51a45,45,0,1,1,42-61.08l-2.68,1a42.11,42.11,0,1,0,.74,28l2.73.89A44.83,44.83,0,0,1,48.63,94.51Z"/><path class="cls-1" d="M90.55,55.81a7.89,7.89,0,1,1,7.89-7.89A7.9,7.9,0,0,1,90.55,55.81Zm0-12.9a5,5,0,1,0,5,5A5,5,0,0,0,90.55,42.91Z"/><path class="cls-2" d="M48.64,32.16A11.21,11.21,0,0,0,37.43,43.37C37.43,54.08,48.64,68,48.64,68s11.21-14,11.21-24.67A11.21,11.21,0,0,0,48.64,32.16Zm0,17.4a6.06,6.06,0,1,1,6.06-6.05A6.05,6.05,0,0,1,48.64,49.56Z"/></svg>