<svg id="Layer_1" data-name="Layer 1" xmlns="http://www.w3.org/2000/svg" viewBox="0 0 58 58"><defs><style>.cls-1{fill:#efefef;opacity:0.1;}.cls-2{fill:#fff;}</style></defs><title>email-contact</title><circle class="cls-1" cx="29.24" cy="28.78" r="27.24"/><path class="cls-2" d="M37.19,32.87a.43.43,0,0,1-.28-.11l-4.8-4.5a.42.42,0,0,1,0-.59.41.41,0,0,1,.59,0l4.79,4.49a.42.42,0,0,1-.29.72Z"/><path class="cls-2" d="M21.2,32.87a.43.43,0,0,1-.31-.13.42.42,0,0,1,0-.59l4.79-4.49a.42.42,0,0,1,.59,0,.41.41,0,0,1,0,.59l-4.79,4.5A.43.43,0,0,1,21.2,32.87Z"/><path class="cls-2" d="M40.07,37.25H18.41a2.08,2.08,0,0,1-2.08-2.08v-14a2.08,2.08,0,0,1,2.08-2.08H40.07a2.08,2.08,0,0,1,2.08,2.08v14A2.08,2.08,0,0,1,40.07,37.25Zm-22.79-16V35a1.25,1.25,0,0,0,1.25,1.25H39.94A1.25,1.25,0,0,0,41.19,35V21.28A1.25,1.25,0,0,0,39.94,20H18.53A1.25,1.25,0,0,0,17.28,21.28Z"/><path class="cls-2" d="M29.19,30a2.29,2.29,0,0,1-1.52-.55L17,20.08a.41.41,0,1,1,.55-.62l10.69,9.32a1.55,1.55,0,0,0,2,0l10.67-9.31a.42.42,0,0,1,.59,0,.41.41,0,0,1,0,.59L30.72,29.41A2.3,2.3,0,0,1,29.19,30Z"/></svg>