<?xml version="1.0" encoding="utf-8"?>
<!-- Generator: Adobe Illustrator 16.0.0, SVG Export Plug-In . SVG Version: 6.00 Build 0)  -->
<!DOCTYPE svg PUBLIC "-//W3C//DTD SVG 1.1//EN" "http://www.w3.org/Graphics/SVG/1.1/DTD/svg11.dtd">
<svg version="1.1" id="Layer_1" xmlns="http://www.w3.org/2000/svg" xmlns:xlink="http://www.w3.org/1999/xlink" x="0px" y="0px"
	 width="25.823px" height="18.171px" viewBox="0 0 25.823 18.171" enable-background="new 0 0 25.823 18.171" xml:space="preserve">
<path fill="#FFFFFF" d="M20.865,13.791c-0.103,0-0.205-0.037-0.285-0.113l-4.792-4.495c-0.167-0.157-0.175-0.42-0.018-0.588
	c0.158-0.169,0.42-0.176,0.589-0.018l4.791,4.495c0.168,0.158,0.176,0.42,0.019,0.588C21.085,13.747,20.975,13.791,20.865,13.791"/>
<path fill="#FFFFFF" d="M4.87,13.791c-0.111,0-0.222-0.044-0.304-0.132c-0.157-0.168-0.149-0.43,0.018-0.588l4.794-4.495
	C9.546,8.42,9.81,8.427,9.966,8.595c0.158,0.168,0.15,0.431-0.018,0.588l-4.793,4.495C5.075,13.754,4.973,13.791,4.87,13.791"/>
<path fill="#FFFFFF" d="M23.741,18.171H2.082C0.933,18.171,0,17.239,0,16.09V2.082C0,0.933,0.933,0,2.082,0h21.659
	c1.15,0,2.082,0.933,2.082,2.082V16.09C25.823,17.239,24.891,18.171,23.741,18.171 M0.957,2.206v13.76
	c0,0.689,0.559,1.249,1.249,1.249h21.412c0.689,0,1.248-0.56,1.248-1.249V2.206c0-0.69-0.559-1.25-1.248-1.25H2.206
	C1.516,0.956,0.957,1.516,0.957,2.206"/>
<path fill="#FFFFFF" d="M12.868,10.884c-0.554,0-1.107-0.186-1.529-0.553L0.646,1.005C0.473,0.854,0.455,0.591,0.605,0.417
	c0.153-0.174,0.415-0.189,0.588-0.04l10.692,9.326c0.532,0.465,1.432,0.465,1.962,0l10.68-9.311c0.173-0.151,0.435-0.134,0.588,0.04
	c0.15,0.174,0.133,0.436-0.04,0.588l-10.679,9.312C13.975,10.698,13.422,10.884,12.868,10.884"/>
</svg>
