<svg id="Layer_1" data-name="Layer 1" xmlns="http://www.w3.org/2000/svg" viewBox="0 0 58 58"><defs><style>.cls-1{fill:#efefef;opacity:0.1;}.cls-2{fill:#fff;}</style></defs><title>full-name-contact</title><circle class="cls-1" cx="29.24" cy="28.78" r="27.24"/><path class="cls-2" d="M29.24,29c-3.13,0-5.68-3-5.68-6.79,0-3.35.68-6.79,5.68-6.79s5.68,3.44,5.68,6.79C34.92,26,32.37,29,29.24,29Zm0-12.58c-3.9,0-4.68,2.22-4.68,5.79,0,3.19,2.1,5.79,4.68,5.79s4.68-2.6,4.68-5.79C33.92,18.64,33.13,16.42,29.24,16.42Z"/><path class="cls-2" d="M29.24,42.14c-8.55,0-10.16-3-10.23-3.18L19,38.85V38.1h.25l-.25,0s0-.16,0-.44c.11-6.08,1.09-8,7.33-9.15l.3,0,.19.23a3.1,3.1,0,0,0,2.44.9,3.12,3.12,0,0,0,2.44-.9l.19-.23.29,0c6.27,1.13,7.25,3.12,7.34,9.35,0,.25,0,.36,0,.4l-.42,0h.43v.58l-.06.11C39.4,39.09,37.79,42.14,29.24,42.14ZM20,38.59c.32.44,2.24,2.55,9.28,2.55s8.94-2.1,9.28-2.55v-.33h0c0-.12,0-.25,0-.39h0c-.09-5.77-.68-7.29-6.26-8.34a4.35,4.35,0,0,1-3,1.05,4.38,4.38,0,0,1-3-1.05c-5.52,1-6.15,2.62-6.25,8.14,0,.16,0,.3,0,.42h0v0h0Z"/></svg>