<svg id="Layer_1" data-name="Layer 1" xmlns="http://www.w3.org/2000/svg" viewBox="0 0 100 100"><defs><style>.cls-1{fill:#81c4f0;}</style></defs><title>contact-us-menu-selected</title><path class="cls-1" d="M47.57,96.22a46,46,0,1,1,43-62.47l-2.74,1a43.06,43.06,0,1,0,.76,28.68l2.79.91A45.85,45.85,0,0,1,47.57,96.22Z"/><path class="cls-1" d="M90.45,56.64a8.07,8.07,0,1,1,8.06-8.07A8.08,8.08,0,0,1,90.45,56.64Zm0-13.19a5.13,5.13,0,1,0,5.13,5.12A5.13,5.13,0,0,0,90.45,43.45Z"/><path class="cls-1" d="M26.94,43q.91.64,5.5,3.83t7,4.9l1.14.82c.58.42,1.06.76,1.45,1s.85.55,1.39.87a8.21,8.21,0,0,0,1.55.73,4.27,4.27,0,0,0,1.34.24h0a4.33,4.33,0,0,0,1.35-.24,8.14,8.14,0,0,0,1.54-.73c.55-.32,1-.61,1.4-.87s.87-.6,1.45-1l1.14-.82Q55.74,50,65.84,43a12.7,12.7,0,0,0,3.28-3.3,7.08,7.08,0,0,0,1.32-4,4.34,4.34,0,0,0-4.3-4.3H26.62a3.86,3.86,0,0,0-3.19,1.4,5.42,5.42,0,0,0-1.11,3.49,6.23,6.23,0,0,0,1.48,3.66A13.12,13.12,0,0,0,26.94,43Z"/><path class="cls-1" d="M67.6,45.62q-8.73,5.93-13.26,9.21c-1,.74-1.83,1.33-2.46,1.75a16.15,16.15,0,0,1-2.52,1.28,7.76,7.76,0,0,1-2.93.65h0a7.76,7.76,0,0,1-2.93-.65,16.15,16.15,0,0,1-2.52-1.28c-.63-.42-1.45-1-2.46-1.75q-3.6-2.64-13.23-9.21a14.09,14.09,0,0,1-2.69-2.33v21.2a4.28,4.28,0,0,0,4.26,4.28H66a4.28,4.28,0,0,0,4.26-4.28V43.29A14.67,14.67,0,0,1,67.6,45.62Z"/></svg>