<svg id="Layer_1" data-name="Layer 1" xmlns="http://www.w3.org/2000/svg" viewBox="0 0 100 100"><defs><style>.cls-1{fill:#81c4f0;}.cls-2{fill:none;stroke:#81c4f0;stroke-miterlimit:10;stroke-width:4px;}</style></defs><title>market-data-menu-selected</title><path class="cls-1" d="M47.57,96.22a46,46,0,1,1,43-62.47l-2.74,1a43.06,43.06,0,1,0,.76,28.68l2.79.91A45.85,45.85,0,0,1,47.57,96.22Z"/><path class="cls-1" d="M90.45,56.64a8.07,8.07,0,1,1,8.06-8.07A8.08,8.08,0,0,1,90.45,56.64Zm0-13.19a5.13,5.13,0,1,0,5.13,5.12A5.13,5.13,0,0,0,90.45,43.45Z"/><polyline class="cls-2" points="22.88 26 22.88 70 73.88 70"/><rect class="cls-1" x="29.88" y="45" width="8.94" height="19"/><rect class="cls-1" x="44.88" y="49" width="8.94" height="15"/><rect class="cls-1" x="61.88" y="42" width="8.94" height="22"/><path class="cls-1" d="M33.88,40.5a5.5,5.5,0,1,1,5.5-5.5A5.5,5.5,0,0,1,33.88,40.5Zm0-8a2.5,2.5,0,1,0,2.5,2.5A2.5,2.5,0,0,0,33.88,32.5Z"/><path class="cls-1" d="M48.88,45.5a5.5,5.5,0,1,1,5.5-5.5A5.5,5.5,0,0,1,48.88,45.5Zm0-8a2.5,2.5,0,1,0,2.5,2.5A2.5,2.5,0,0,0,48.88,37.5Z"/><path class="cls-1" d="M65.88,36.5a5.5,5.5,0,1,1,5.5-5.5A5.5,5.5,0,0,1,65.88,36.5Zm0-8a2.5,2.5,0,1,0,2.5,2.5A2.5,2.5,0,0,0,65.88,28.5Z"/><rect class="cls-1" x="39.38" y="34.19" width="3" height="7.62" transform="translate(-10.15 60.6) rotate(-66.8)"/><rect class="cls-1" x="51.55" y="35" width="11.66" height="3" transform="translate(-10.6 34.73) rotate(-30.97)"/></svg>