<svg id="Layer_1" data-name="Layer 1" xmlns="http://www.w3.org/2000/svg" viewBox="0 0 100 100"><defs><style>.cls-1{fill:#81c4f0;}</style></defs><title>resources-menu-selected</title><path class="cls-1" d="M47.57,96.22a46,46,0,1,1,43-62.47l-2.74,1a43.06,43.06,0,1,0,.76,28.68l2.79.91A45.85,45.85,0,0,1,47.57,96.22Z"/><path class="cls-1" d="M90.45,56.64a8.07,8.07,0,1,1,8.06-8.07A8.08,8.08,0,0,1,90.45,56.64Zm0-13.19a5.13,5.13,0,1,0,5.13,5.12A5.13,5.13,0,0,0,90.45,43.45Z"/><path class="cls-1" d="M48.42,28.23a6.38,6.38,0,1,0-6.37-6.37A6.37,6.37,0,0,0,48.42,28.23Z"/><path class="cls-1" d="M57,31.32h0c-.83-.2-3.37-.56-3.37-.56a.56.56,0,0,0-.7.35L49.07,41.6a.69.69,0,0,1-1.3,0L44,31.11a.58.58,0,0,0-.53-.38c-.06,0-2.67.37-3.54.59A5.42,5.42,0,0,0,36,36.68v8.74a2.38,2.38,0,0,0,2.37,2.37h20.1a2.38,2.38,0,0,0,2.37-2.37V36.65A5.61,5.61,0,0,0,57,31.32Z"/><path class="cls-1" d="M49.86,30.56a.79.79,0,0,0-.6-.25H47.58a.79.79,0,0,0-.6.25.77.77,0,0,0-.11.92l.9,1.36-.42,3.55.83,2.21a.26.26,0,0,0,.48,0l.83-2.21-.42-3.55.9-1.36A.79.79,0,0,0,49.86,30.56Z"/><path class="cls-1" d="M64.28,61a4.72,4.72,0,1,0-4.72-4.72A4.72,4.72,0,0,0,64.28,61Z"/><path class="cls-1" d="M70.61,63.29h0c-.62-.15-2.5-.41-2.5-.41a.4.4,0,0,0-.51.25L64.76,70.9a.51.51,0,0,1-1,0L61,63.13a.42.42,0,0,0-.4-.27s-2,.27-2.61.43a4,4,0,0,0-2.87,4v6.46a1.75,1.75,0,0,0,1.75,1.75H71.71a1.75,1.75,0,0,0,1.75-1.75V67.24a4.15,4.15,0,0,0-2.85-3.95Z"/><path class="cls-1" d="M65.34,62.73a.6.6,0,0,0-.44-.19H63.65a.61.61,0,0,0-.44.19.57.57,0,0,0-.08.68l.67,1L63.49,67l.61,1.64a.19.19,0,0,0,.35,0L65.07,67l-.32-2.63.67-1A.57.57,0,0,0,65.34,62.73Z"/><path class="cls-1" d="M32.48,61a4.72,4.72,0,1,0-4.72-4.72A4.73,4.73,0,0,0,32.48,61Z"/><path class="cls-1" d="M38.81,63.29h0c-.61-.15-2.49-.41-2.49-.41a.41.41,0,0,0-.52.25L33,70.9a.51.51,0,0,1-1,0l-2.83-7.77a.41.41,0,0,0-.39-.27s-2,.27-2.62.43a4,4,0,0,0-2.87,4v6.46A1.75,1.75,0,0,0,25,75.47H39.91a1.75,1.75,0,0,0,1.76-1.75V67.24a4.16,4.16,0,0,0-2.86-3.95Z"/><path class="cls-1" d="M33.55,62.73a.64.64,0,0,0-.45-.19H31.86a.62.62,0,0,0-.45.19.59.59,0,0,0-.08.68l.67,1L31.69,67l.61,1.64a.19.19,0,0,0,.35,0L33.27,67,33,64.41l.66-1A.57.57,0,0,0,33.55,62.73Z"/><path class="cls-1" d="M45.18,50.71a.34.34,0,0,0,.2.62c.19,0,.15.08-.29.36A5.56,5.56,0,0,0,42.62,56c0,.48,0,.57.19.62.32.1.47-.1.54-.71a5.72,5.72,0,0,1,.73-2.19,6.17,6.17,0,0,1,1.69-1.61l.48-.26,0,.36c0,.43.2.66.49.48a4.52,4.52,0,0,0,.68-1.93c0-.14-.19-.17-.82-.17a6.32,6.32,0,0,1-1-.06A.42.42,0,0,0,45.18,50.71Z"/><path class="cls-1" d="M47.77,51c-.12.36,0,.48.71.55a5.45,5.45,0,0,1,2.13.68,7,7,0,0,1,1.64,1.69l.16.29h-.36c-.32,0-.36,0-.39.25s.08.34.7.81c1,.74,1,.71,1.43-.43.34-1,.35-1.09.18-1.26s-.48-.13-.6.18-.13.29-.16.29a1.69,1.69,0,0,1-.3-.47,6.34,6.34,0,0,0-2.36-2.2,4.61,4.61,0,0,0-2.17-.56C47.92,50.82,47.81,50.85,47.77,51Z"/><path class="cls-1" d="M53,56a1.7,1.7,0,0,0-.21.8,4.37,4.37,0,0,1-1.23,2.73,4.78,4.78,0,0,1-1.45,1.08c-.23.08-.24.07-.23-.27s0-.36-.28-.36-.32.07-.66.73c-.4.82-.44,1-.23,1.17a6.35,6.35,0,0,0,2,.26q.18-.06.18-.36c0-.24-.05-.29-.3-.35l-.3-.06.52-.29a6,6,0,0,0,2.58-3.41c.2-.74.2-1.62,0-1.7A.34.34,0,0,0,53,56Z"/><path class="cls-1" d="M42.27,56.84c-.18.14-.18.17,0,1.08.2,1.19.42,1.48.8,1.09.13-.13.19-.09.46.34a5.66,5.66,0,0,0,4.28,2.45c.55,0,.78-.15.67-.48,0-.14-.17-.2-.52-.25a4.7,4.7,0,0,1-3-1.2,5,5,0,0,1-1.26-1.75l-.2-.46.28.05a.44.44,0,0,0,.46-.12c.24-.27,0-.56-.43-.64L43,56.79l-.5-.09A1.12,1.12,0,0,0,42.27,56.84Z"/></svg>