<svg id="Layer_1" data-name="Layer 1" xmlns="http://www.w3.org/2000/svg" viewBox="0 0 100 100"><defs><style>.cls-1{fill:#e3e3e3;}</style></defs><title>home-menu</title><path class="cls-1" d="M24.63,52.13h0a2.53,2.53,0,0,1,0-3.57L48.09,25.1a2.52,2.52,0,0,1,3.57,0L75.12,48.56a2.53,2.53,0,0,1,0,3.57h0a2.53,2.53,0,0,1-3.57,0L51.66,32.24a2.52,2.52,0,0,0-3.57,0L28.2,52.13A2.53,2.53,0,0,1,24.63,52.13Z"/><path class="cls-1" d="M68.54,73.48H59.17a4.83,4.83,0,0,1-4.83-4.83V54.84H45.41V68.65a4.83,4.83,0,0,1-4.83,4.83H31.21a4.83,4.83,0,0,1-4.83-4.83V48.41h5.05v20h8.93V54.63a4.83,4.83,0,0,1,4.83-4.83h9.37a4.83,4.83,0,0,1,4.83,4.83v13.8h8.93v-20h5.05V68.65A4.83,4.83,0,0,1,68.54,73.48Z"/></svg>