<svg id="Layer_1" data-name="Layer 1" xmlns="http://www.w3.org/2000/svg" viewBox="0 0 100 100"><defs><style>.cls-1{fill:#81c4f0;}</style></defs><title>home-menu-selected</title><path class="cls-1" d="M47.57,96.22a46,46,0,1,1,43-62.47l-2.74,1a43.06,43.06,0,1,0,.76,28.68l2.79.91A45.85,45.85,0,0,1,47.57,96.22Z"/><path class="cls-1" d="M90.45,56.64a8.07,8.07,0,1,1,8.06-8.07A8.08,8.08,0,0,1,90.45,56.64Zm0-13.19a5.13,5.13,0,1,0,5.13,5.12A5.13,5.13,0,0,0,90.45,43.45Z"/><path class="cls-1" d="M24.14,51.39h0a2.52,2.52,0,0,1,0-3.57L47.59,24.36a2.53,2.53,0,0,1,3.57,0L74.62,47.82a2.54,2.54,0,0,1,0,3.57h0a2.53,2.53,0,0,1-3.57,0L51.16,31.5a2.53,2.53,0,0,0-3.57,0L27.71,51.39A2.53,2.53,0,0,1,24.14,51.39Z"/><path class="cls-1" d="M68,72.75H58.67a4.84,4.84,0,0,1-4.83-4.83V54.11H44.91V67.92a4.83,4.83,0,0,1-4.83,4.83H30.71a4.84,4.84,0,0,1-4.83-4.83V47.68h5.05v20h8.93V53.89a4.84,4.84,0,0,1,4.83-4.83h9.37a4.84,4.84,0,0,1,4.83,4.83V67.7h8.93v-20h5.05V67.92A4.84,4.84,0,0,1,68,72.75Z"/></svg>