<svg id="Layer_1" data-name="Layer 1" xmlns="http://www.w3.org/2000/svg" viewBox="0 0 100 100"><defs><style>.cls-1{fill:#e3e3e3;}</style></defs><title>mortgage-analytics-menu</title><path class="cls-1" d="M59.77,39.6,57,37l-2.13-2-1-1a4.71,4.71,0,0,0-3.53-1.37A5.18,5.18,0,0,0,47,34.05c-.14.15-.51.49-1.09,1s-1.29,1.21-2.16,2l-2.85,2.6L37.7,42.57l-8.34,7.62V71.92A2.44,2.44,0,0,0,30.31,74a4.12,4.12,0,0,0,2.58.73h35a3.51,3.51,0,0,0,2.5-1,3,3,0,0,0,.93-2.17V50.31l-8.41-7.79Q61.3,41.07,59.77,39.6Zm-1.7,24.94A10.88,10.88,0,1,1,57.7,48.8,10.89,10.89,0,0,1,58.07,64.54Z"/><path class="cls-1" d="M55.23,53.23a1.34,1.34,0,0,0-1.9,0L49.2,57.36a.39.39,0,0,1-.55,0l-1.22-1.23a1.34,1.34,0,0,0-1.9,1.9l1.5,1.5.95.94a1.33,1.33,0,0,0,1.89,0l1-.95,4.41-4.41a1.34,1.34,0,0,0,0-1.89Z"/><path class="cls-1" d="M77.27,42.19l-1.4-1.4c-.71-.72-1.59-1.57-2.63-2.55S71,36.13,69.79,34.9,67.26,32.43,66,31.17s-2.6-2.49-3.86-3.72-2.42-2.35-3.45-3.34L56,21.59c-.71-.69-1.17-1.13-1.4-1.32a5.69,5.69,0,0,0-4.2-1.65,6.54,6.54,0,0,0-4.59,2.1c-.19.18-.85.81-2,1.87l-4.08,3.85c-1.59,1.49-3.31,3.1-5.16,4.81l-5.19,4.82c-1.61,1.49-3,2.79-4.15,3.87s-1.85,1.74-2.07,2a3.13,3.13,0,0,0-.95,2.27,3,3,0,0,0,1.06,2.44,3.26,3.26,0,0,0,2.41.84A3.72,3.72,0,0,0,28,46.72c.19-.15.73-.65,1.65-1.49s2-1.86,3.28-3,2.66-2.49,4.15-3.87,2.92-2.71,4.26-4S43.83,32,44.86,31L47,29.06a5.4,5.4,0,0,1,3.42-1.57,5.09,5.09,0,0,1,3.53,1.57c.26.22.88.8,1.85,1.74s2.13,2,3.47,3.31,2.78,2.62,4.29,4.06l4.26,4,3.42,3.22c1,.9,1.52,1.42,1.71,1.57a3.53,3.53,0,0,0,2.24.79,3.36,3.36,0,0,0,2.46-.9,2.77,2.77,0,0,0,.9-2.24A3.54,3.54,0,0,0,77.27,42.19Z"/></svg>