<svg id="Layer_1" data-name="Layer 1" xmlns="http://www.w3.org/2000/svg" viewBox="0 0 100 100"><defs><style>.cls-1{fill:#81c4f0;}</style></defs><title>mortgage-analytics-menu-selected</title><path class="cls-1" d="M47.57,96.22a46,46,0,1,1,43-62.47l-2.74,1a43.06,43.06,0,1,0,.76,28.68l2.79.91A45.85,45.85,0,0,1,47.57,96.22Z"/><path class="cls-1" d="M90.45,56.64a8.07,8.07,0,1,1,8.06-8.07A8.08,8.08,0,0,1,90.45,56.64Zm0-13.19a5.13,5.13,0,1,0,5.13,5.12A5.13,5.13,0,0,0,90.45,43.45Z"/><path class="cls-1" d="M56.77,41.59c-1-1-2-1.84-2.78-2.63l-2.13-2-1-1a4.71,4.71,0,0,0-3.53-1.37A5.18,5.18,0,0,0,44,36c-.14.15-.51.5-1.09,1s-1.29,1.21-2.16,2l-2.85,2.6L34.7,44.56l-8.34,7.62V73.91A2.42,2.42,0,0,0,27.31,76a4.12,4.12,0,0,0,2.58.73h35a3.51,3.51,0,0,0,2.5-1,3,3,0,0,0,.93-2.17V52.3l-8.41-7.79Q58.3,43.06,56.77,41.59Zm-1.7,24.94a10.88,10.88,0,1,1-.37-15.74A10.89,10.89,0,0,1,55.07,66.53Z"/><path class="cls-1" d="M52.23,55.22a1.33,1.33,0,0,0-1.9,0L46.2,59.35a.39.39,0,0,1-.55,0l-1.22-1.23a1.34,1.34,0,0,0-1.9,1.9l1.5,1.5.95.95a1.34,1.34,0,0,0,1.89,0l1-.95,4.41-4.41a1.34,1.34,0,0,0,0-1.89Z"/><path class="cls-1" d="M74.27,44.18l-1.4-1.4c-.71-.71-1.59-1.56-2.63-2.55s-2.2-2.1-3.45-3.34S64.26,34.42,63,33.16s-2.6-2.49-3.86-3.72-2.42-2.34-3.45-3.34L53,23.58c-.71-.69-1.17-1.13-1.4-1.31a5.66,5.66,0,0,0-4.2-1.66,6.54,6.54,0,0,0-4.59,2.1l-2,1.88c-1.13,1.06-2.5,2.34-4.08,3.84l-5.16,4.82C29.75,35,28,36.57,26.42,38.06l-4.15,3.87c-1.16,1.08-1.85,1.74-2.07,2a3.15,3.15,0,0,0-.95,2.27,3,3,0,0,0,1.06,2.44,3.26,3.26,0,0,0,2.41.84A3.72,3.72,0,0,0,25,48.71c.19-.15.73-.64,1.65-1.49s2-1.86,3.28-3S32.55,41.68,34,40.3s2.92-2.71,4.26-4,2.53-2.38,3.56-3.33L44,31.05a5.4,5.4,0,0,1,3.42-1.57,5.09,5.09,0,0,1,3.53,1.57c.26.23.88.81,1.85,1.74s2.13,2,3.47,3.31,2.78,2.62,4.29,4.06l4.26,4,3.42,3.22c1,.9,1.52,1.42,1.71,1.57a3.53,3.53,0,0,0,2.24.79,3.36,3.36,0,0,0,2.46-.9,2.77,2.77,0,0,0,.9-2.24A3.56,3.56,0,0,0,74.27,44.18Z"/></svg>