<svg id="Layer_1" data-name="Layer 1" xmlns="http://www.w3.org/2000/svg" viewBox="0 0 52.5 52.5"><defs><style>.cls-1{fill:#81c4f0;}.cls-2{fill:#fff;}</style></defs><title>google-plus</title><circle class="cls-1" cx="26.65" cy="26.27" r="24.74"/><path class="cls-2" d="M32.47,13.8H26.52a8.89,8.89,0,0,0-6.13,1.94,5.88,5.88,0,0,0-2.08,4.36,5.14,5.14,0,0,0,5.39,5.11c.34,0,.71,0,1-.07l0,.12a2.74,2.74,0,0,0-.28,1.15,3.28,3.28,0,0,0,.92,2.14l.06.07h-.1a13.8,13.8,0,0,0-6.1,1.49,4.67,4.67,0,0,0-2.5,4c0,2.31,2.15,4.65,7,4.65,5.6,0,8.54-3.09,8.54-6.15,0-2.26-1.33-3.37-2.74-4.56l-1.18-.92a1.73,1.73,0,0,1-.82-1.38,2.19,2.19,0,0,1,.85-1.54l.05-.05c1.28-1,2.73-2.15,2.73-4.63a5.49,5.49,0,0,0-2.3-4.39h2a.08.08,0,0,0,.07,0L32.54,14a.13.13,0,0,0,.06-.14A.13.13,0,0,0,32.47,13.8ZM25.26,37.38c-3.42,0-5.72-1.6-5.72-4,0-1.55.94-2.68,2.79-3.35a13.22,13.22,0,0,1,3.42-.53,4.23,4.23,0,0,1,.74,0c2.39,1.7,3.54,2.59,3.54,4.29C30,36,28.2,37.38,25.26,37.38Zm0-13.08c-2.87,0-4.06-3.77-4.06-5.79a3.68,3.68,0,0,1,.71-2.41A3,3,0,0,1,24.15,15c2.64,0,4.09,3.54,4.09,6a3.35,3.35,0,0,1-.81,2.38A3.33,3.33,0,0,1,25.23,24.3Z"/><path class="cls-2" d="M40.81,25.45H37.68V22.32a.13.13,0,0,0-.13-.13H36.2a.13.13,0,0,0-.13.13v3.13H33a.13.13,0,0,0-.13.13v1.36a.13.13,0,0,0,.13.13h3.12v3.14a.13.13,0,0,0,.13.13h1.35a.13.13,0,0,0,.13-.13V27.07h3.13a.13.13,0,0,0,.13-.13V25.58A.13.13,0,0,0,40.81,25.45Z"/></svg>