<?xml version="1.0" encoding="utf-8"?>
<!-- Generator: Adobe Illustrator 16.0.0, SVG Export Plug-In . SVG Version: 6.00 Build 0)  -->
<!DOCTYPE svg PUBLIC "-//W3C//DTD SVG 1.1//EN" "http://www.w3.org/Graphics/SVG/1.1/DTD/svg11.dtd">
<svg version="1.1" id="Layer_1" xmlns="http://www.w3.org/2000/svg" xmlns:xlink="http://www.w3.org/1999/xlink" x="0px" y="0px"
	 width="24.124px" height="27.618px" viewBox="0 0 24.124 27.618" enable-background="new 0 0 24.124 27.618" xml:space="preserve">
<path display="none" fill="#85C4EB" d="M34.701,15.146c0,13.662-11.075,24.737-24.737,24.737s-24.738-11.075-24.738-24.737
	c0-13.663,11.076-24.738,24.738-24.738S34.701,1.482,34.701,15.146"/>
<path fill="#FFFFFF" d="M15.786,2.672h-5.95c-2.651,0-4.485,0.582-6.138,1.946c-1.299,1.12-2.074,2.748-2.074,4.357
	c0,2.477,1.889,5.108,5.388,5.108c0.337,0,0.71-0.034,1.038-0.064l-0.048,0.117c-0.141,0.337-0.274,0.655-0.274,1.151
	c0,0.966,0.466,1.562,0.916,2.138l0.058,0.073l-0.101,0.007c-1.445,0.099-4.135,0.283-6.1,1.491C0.181,20.376,0,22.383,0,22.965
	c0,2.315,2.158,4.653,6.979,4.653c5.606,0,8.538-3.093,8.538-6.148c0.001-2.26-1.323-3.375-2.729-4.56l-1.186-0.923
	c-0.367-0.303-0.824-0.682-0.824-1.382c0-0.688,0.457-1.143,0.859-1.543l0.042-0.043c1.281-1.009,2.733-2.154,2.733-4.628
	c0-2.489-1.555-3.775-2.303-4.393h1.975c0.024,0,0.049-0.008,0.068-0.02l1.701-1.069c0.048-0.03,0.07-0.091,0.055-0.145
	C15.893,2.71,15.843,2.672,15.786,2.672 M8.571,26.255c-3.417,0-5.714-1.597-5.714-3.973c0-1.551,0.939-2.678,2.788-3.348
	c1.482-0.498,3.395-0.523,3.413-0.523c0.324,0,0.486,0,0.745,0.032c2.392,1.702,3.541,2.596,3.541,4.297
	C13.345,24.907,11.516,26.255,8.571,26.255 M8.539,13.173c-2.868,0-4.06-3.771-4.06-5.789c0-1.026,0.234-1.815,0.715-2.409
	c0.521-0.652,1.414-1.073,2.273-1.073c2.633,0,4.09,3.54,4.09,5.986c0,0.386,0,1.559-0.812,2.375
	C10.201,12.807,9.313,13.173,8.539,13.173"/>
<path fill="#FFFFFF" d="M24.124,14.323h-3.135v-3.124c0-0.07-0.058-0.128-0.129-0.128h-1.349c-0.071,0-0.129,0.058-0.129,0.128
	v3.124h-3.119c-0.071,0-0.129,0.058-0.129,0.129v1.367c0,0.069,0.058,0.128,0.129,0.128h3.119v3.145c0,0.07,0.058,0.128,0.129,0.128
	h1.349c0.071,0,0.129-0.058,0.129-0.128v-3.145h3.135c0.071,0,0.129-0.059,0.129-0.129v-1.366
	C24.253,14.381,24.195,14.323,24.124,14.323"/>
</svg>
