<?xml version="1.0" encoding="utf-8"?>
<!-- Generator: Adobe Illustrator 16.0.0, SVG Export Plug-In . SVG Version: 6.00 Build 0)  -->
<!DOCTYPE svg PUBLIC "-//W3C//DTD SVG 1.1//EN" "http://www.w3.org/Graphics/SVG/1.1/DTD/svg11.dtd">
<svg version="1.1" id="Layer_1" xmlns="http://www.w3.org/2000/svg" xmlns:xlink="http://www.w3.org/1999/xlink" x="0px" y="0px"
	 width="24.832px" height="24.833px" viewBox="0 0 24.832 24.833" enable-background="new 0 0 24.832 24.833" xml:space="preserve">
<path fill="#FFFFFF" d="M3.188,0h18.458c1.753,0,3.187,1.298,3.187,3.188v18.458c0,1.89-1.434,3.188-3.187,3.188H3.188
	C1.434,24.833,0,23.535,0,21.646V3.188C0,1.298,1.434,0,3.188,0 M18.09,2.759c-0.615,0-1.118,0.502-1.118,1.119v2.675
	c0,0.615,0.503,1.119,1.118,1.119h2.807c0.614,0,1.117-0.504,1.117-1.119V3.878c0-0.617-0.503-1.119-1.117-1.119H18.09z
	 M22.026,10.502H19.84c0.207,0.674,0.319,1.39,0.319,2.13c0,4.13-3.456,7.479-7.72,7.479c-4.262,0-7.718-3.349-7.718-7.479
	c0-0.741,0.111-1.456,0.318-2.13H2.76v10.489c0,0.543,0.444,0.987,0.987,0.987h17.292c0.543,0,0.987-0.444,0.987-0.987V10.502z
	 M12.439,7.53c-2.754,0-4.987,2.163-4.987,4.832s2.233,4.833,4.987,4.833c2.755,0,4.988-2.164,4.988-4.833S15.194,7.53,12.439,7.53"
	/>
</svg>
