<svg id="Layer_1" data-name="Layer 1" xmlns="http://www.w3.org/2000/svg" viewBox="0 0 52.5 52.5"><defs><style>.cls-1{fill:#81c4f0;}.cls-2{fill:#fff;}</style></defs><title>facebook</title><circle class="cls-1" cx="26.65" cy="26.27" r="24.74"/><path class="cls-2" d="M32.85,13H29.42c-3.86,0-6.35,2.56-6.35,6.51v3H19.62a.54.54,0,0,0-.54.54v4.35a.54.54,0,0,0,.54.54h3.45V39a.54.54,0,0,0,.54.54h4.5a.54.54,0,0,0,.54-.54V28h4a.54.54,0,0,0,.54-.54V23.09a.54.54,0,0,0-.15-.38.55.55,0,0,0-.39-.16h-4V20c0-1.23.29-1.85,1.88-1.85h2.32a.54.54,0,0,0,.54-.54v-4A.56.56,0,0,0,32.85,13Z"/></svg>