<?xml version="1.0" encoding="utf-8"?>
<!-- Generator: Adobe Illustrator 16.0.0, SVG Export Plug-In . SVG Version: 6.00 Build 0)  -->
<!DOCTYPE svg PUBLIC "-//W3C//DTD SVG 1.1//EN" "http://www.w3.org/Graphics/SVG/1.1/DTD/svg11.dtd">
<svg version="1.1" id="Layer_1" xmlns="http://www.w3.org/2000/svg" xmlns:xlink="http://www.w3.org/1999/xlink" x="0px" y="0px"
	 width="25.928px" height="26.312px" viewBox="0 0 25.928 26.312" enable-background="new 0 0 25.928 26.312" xml:space="preserve">
<path display="none" fill="#85C4EB" d="M35.531,13.156c0,13.662-11.075,24.737-24.738,24.737c-13.662,0-24.738-11.075-24.738-24.737
	c0-13.663,11.076-24.738,24.738-24.738C24.456-11.582,35.531-0.507,35.531,13.156"/>
<path fill="#FFFFFF" d="M3.091,0C1.156,0-0.42,1.575-0.421,3.512c0,1.937,1.575,3.511,3.512,3.511c1.936,0,3.511-1.574,3.511-3.511
	S5.026,0,3.091,0"/>
<path fill="#FFFFFF" d="M5.727,8.435H0.455C0.204,8.435,0,8.638,0,8.889v16.969c0,0.251,0.204,0.454,0.455,0.454h5.271
	c0.251,0,0.454-0.203,0.454-0.454V8.889C6.181,8.638,5.978,8.435,5.727,8.435"/>
<path fill="#FFFFFF" d="M19.204,8.235c-1.93,0-3.625,0.587-4.659,1.545V8.889c0-0.252-0.204-0.454-0.455-0.454H9.033
	c-0.251,0-0.454,0.202-0.454,0.454v16.969c0,0.251,0.203,0.454,0.454,0.454H14.3c0.251,0,0.455-0.203,0.455-0.454v-8.395
	c0-2.41,0.442-3.902,2.653-3.902c2.179,0.003,2.342,1.604,2.342,4.046v8.251c0,0.251,0.203,0.454,0.454,0.454h5.27
	c0.251,0,0.454-0.203,0.454-0.454v-9.309C25.928,12.678,25.164,8.235,19.204,8.235"/>
</svg>
