<svg id="Layer_1" data-name="Layer 1" xmlns="http://www.w3.org/2000/svg" viewBox="0 0 52.5 52.5"><defs><style>.cls-1{fill:#81c4f0;}.cls-2{fill:#fff;}</style></defs><title>pinterest</title><circle class="cls-1" cx="26.65" cy="26.27" r="24.74"/><path class="cls-2" d="M38.12,20.24c-.74-5.37-6.09-8.11-11.8-7.47-4.52.51-9,4.16-9.21,9.38-.11,3.18.79,5.57,3.83,6.25,1.31-2.33-.43-2.83-.7-4.52C19.13,17,28.18,12.3,32.92,17.11c3.28,3.33,1.12,13.57-4.17,12.5-5.06-1,2.48-9.16-1.56-10.76-3.29-1.3-5,4-3.47,6.6C22.8,30,20.84,34.2,21.63,39.86c2.58-1.88,3.46-5.46,4.17-9.21,1.3.79,2,1.61,3.65,1.74C35.55,32.86,39,26.3,38.12,20.24Z"/></svg>