<?xml version="1.0" encoding="utf-8"?>
<!-- Generator: Adobe Illustrator 16.0.0, SVG Export Plug-In . SVG Version: 6.00 Build 0)  -->
<!DOCTYPE svg PUBLIC "-//W3C//DTD SVG 1.1//EN" "http://www.w3.org/Graphics/SVG/1.1/DTD/svg11.dtd">
<svg version="1.1" id="Layer_1" xmlns="http://www.w3.org/2000/svg" xmlns:xlink="http://www.w3.org/1999/xlink" x="0px" y="0px"
	 width="23.39px" height="29.096px" viewBox="0 0 23.39 29.096" enable-background="new 0 0 23.39 29.096" xml:space="preserve">
<path fill="#FFFFFF" d="M23.265,9.476c-0.742-5.37-6.095-8.105-11.806-7.465c-4.515,0.506-9.016,4.155-9.202,9.376
	c-0.114,3.187,0.79,5.575,3.82,6.249c1.314-2.323-0.422-2.831-0.693-4.515C4.271,6.242,13.319,1.543,18.059,6.351
	c3.281,3.329,1.119,13.563-4.167,12.5c-5.064-1.017,2.479-9.164-1.561-10.764c-3.285-1.3-5.029,3.976-3.473,6.599
	c-0.913,4.51-2.88,8.756-2.084,14.41c2.582-1.875,3.453-5.461,4.167-9.202c1.298,0.789,1.992,1.605,3.646,1.732
	C20.689,22.102,24.102,15.536,23.265,9.476"/>
</svg>
